<svg width="19" height="19" viewBox="0 0 19 19" fill="none" xmlns="http://www.w3.org/2000/svg">
<path d="M8.29827 15.4375C7.98354 15.4374 7.68171 15.3124 7.4591 15.0899L3.82852 11.4594C3.30979 10.9392 3.01849 10.2346 3.01849 9.49998C3.01849 8.76538 3.30979 8.06076 3.82852 7.5406L7.4591 3.91002C7.68187 3.68735 7.98397 3.5623 8.29894 3.56238C8.61391 3.56245 8.91595 3.68764 9.13862 3.91042C9.36129 4.13319 9.48634 4.43529 9.48626 4.75026C9.48619 5.06523 9.361 5.36727 9.13822 5.58994L5.50764 9.21973C5.47078 9.2565 5.44153 9.30018 5.42158 9.34827C5.40162 9.39636 5.39135 9.44791 5.39135 9.49998C5.39135 9.55204 5.40162 9.6036 5.42158 9.65169C5.44153 9.69978 5.47078 9.74346 5.50764 9.78023L9.13822 13.41C9.30441 13.5761 9.41759 13.7877 9.46346 14.0182C9.50932 14.2486 9.4858 14.4874 9.39588 14.7045C9.30596 14.9215 9.15367 15.107 8.95829 15.2375C8.7629 15.368 8.53321 15.4376 8.29827 15.4375Z" fill="#BCBCBC"/>
<path d="M13.84 15.4375C13.5253 15.4374 13.2235 15.3124 13.0008 15.0899L8.25085 10.3399C8.1405 10.2297 8.05296 10.0987 7.99324 9.95459C7.93351 9.81047 7.90277 9.65599 7.90277 9.49998C7.90277 9.34397 7.93351 9.18949 7.99324 9.04537C8.05296 8.90124 8.1405 8.7703 8.25085 8.66002L13.0008 3.91002C13.1111 3.79977 13.2421 3.71232 13.3862 3.65267C13.5303 3.59302 13.6847 3.56234 13.8407 3.56238C13.9966 3.56241 14.1511 3.59317 14.2951 3.65289C14.4392 3.7126 14.5701 3.80011 14.6804 3.91042C14.7906 4.02072 14.8781 4.15166 14.9377 4.29576C14.9974 4.43986 15.028 4.5943 15.028 4.75026C15.028 4.90622 14.9972 5.06064 14.9375 5.20471C14.8778 5.34878 14.7903 5.47968 14.68 5.58994L10.7668 9.49998L14.6768 13.41C14.8428 13.5759 14.9559 13.7873 15.0019 14.0174C15.0478 14.2475 15.0246 14.4861 14.9351 14.703C14.8455 14.92 14.6937 15.1055 14.4988 15.2362C14.3039 15.3669 14.0747 15.437 13.84 15.4375Z" fill="#BCBCBC"/>
</svg>
