<svg width="30" height="30" viewBox="0 0 30 30" fill="none" xmlns="http://www.w3.org/2000/svg">
<path d="M13.6962 15.4425C13.638 15.3845 13.5919 15.3155 13.5604 15.2396C13.5288 15.1636 13.5126 15.0822 13.5126 15C13.5126 14.9178 13.5288 14.8364 13.5604 14.7605C13.5919 14.6846 13.638 14.6156 13.6962 14.5575L19.4287 8.82629C19.7805 8.47471 19.9782 7.9978 19.9783 7.50048C19.9784 7.00316 19.7809 6.52615 19.4294 6.17441C19.0778 5.82267 18.6009 5.625 18.1036 5.62488C17.6062 5.62476 17.1292 5.82221 16.7775 6.17379L11.045 11.9063C10.226 12.7276 9.76602 13.8401 9.76602 15C9.76602 16.1599 10.226 17.2725 11.045 18.0938L16.7775 23.8263C17.1292 24.1779 17.6062 24.3753 18.1036 24.3752C18.6009 24.3751 19.0778 24.1774 19.4294 23.8257C19.7809 23.4739 19.9784 22.9969 19.9783 22.4996C19.9782 22.0023 19.7805 21.5254 19.4287 21.1738L13.6962 15.4425Z" fill="#828282"/>
</svg>
