<svg width="24" height="24" viewBox="0 0 24 24" fill="none" xmlns="http://www.w3.org/2000/svg">
<path d="M18 5.99994C17.8125 5.81247 17.5582 5.70715 17.293 5.70715C17.0278 5.70715 16.7735 5.81247 16.586 5.99994L12 10.5859L7.414 5.99994C7.22647 5.81247 6.97217 5.70715 6.707 5.70715C6.44184 5.70715 6.18753 5.81247 6 5.99994C5.81253 6.18747 5.70721 6.44178 5.70721 6.70694C5.70721 6.9721 5.81253 7.22641 6 7.41394L10.586 11.9999L6 16.5859C5.81253 16.7735 5.70721 17.0278 5.70721 17.2929C5.70721 17.5581 5.81253 17.8124 6 17.9999C6.18753 18.1874 6.44184 18.2927 6.707 18.2927C6.97217 18.2927 7.22647 18.1874 7.414 17.9999L12 13.4139L16.586 17.9999C16.7735 18.1874 17.0278 18.2927 17.293 18.2927C17.5582 18.2927 17.8125 18.1874 18 17.9999C18.1875 17.8124 18.2928 17.5581 18.2928 17.2929C18.2928 17.0278 18.1875 16.7735 18 16.5859L13.414 11.9999L18 7.41394C18.1875 7.22641 18.2928 6.9721 18.2928 6.70694C18.2928 6.44178 18.1875 6.18747 18 5.99994Z" fill="white"/>
</svg>
