<svg width="710" height="444" viewBox="0 0 710 444" fill="none" xmlns="http://www.w3.org/2000/svg">
<path fill-rule="evenodd" clip-rule="evenodd" d="M284.561 417.5C271.556 411.997 256.725 412.572 243.805 418.269C219.702 428.898 191.56 435 161.5 435C72.306 435 0 381.274 0 315C0 299.575 3.91675 284.83 11.0516 271.284C22.073 250.358 22.8173 223.174 12.0804 202.101C4.29646 186.824 0 170.071 0 152.5C0 88.3747 57.2258 35.1354 132.353 24.8107C139.421 23.8394 146.198 21.3407 152.387 17.7923C171.916 6.59638 195.894 0 221.811 0C250.918 0 277.581 8.32088 298.241 22.1336C318.389 35.6048 346.911 41.1639 369.648 32.7702C386.704 26.474 405.398 23 425 23C464.105 23 499.594 36.8251 525.674 59.3011C528.41 61.659 531.888 63 535.5 63C631.874 63 710 118.964 710 188C710 213.469 699.367 237.158 681.107 256.915C670.013 268.919 665 285.655 665 302C665 380.424 557.324 444 424.5 444C372.299 444 323.983 434.181 284.561 417.5Z" fill="white"/>
</svg>
