<svg width="373" height="245" viewBox="0 0 373 245" fill="none" xmlns="http://www.w3.org/2000/svg">
<g filter="url(#filter0_d_273_1366)">
<rect x="10" y="40" width="353" height="195" rx="5" fill="white"/>
</g>
<mask id="path-2-inside-1_273_1366" fill="white">
<path d="M10 40H363V105H10V40Z"/>
</mask>
<path d="M363 104H10V106H363V104Z" fill="#E0E0E0" mask="url(#path-2-inside-1_273_1366)"/>
<path d="M87.29 57.635H90.545V59.225H87.29V57.635ZM87.185 60.515H90.44V62.105H87.185V60.515ZM90.23 55.445H92.225V63.44H90.23V55.445ZM85.7 56.39H87.83C87.83 60.17 85.7 62.6 81.485 63.755L80.705 62.18C84.23 61.265 85.7 59.525 85.7 57.35V56.39ZM81.47 56.39H87.095V57.98H81.47V56.39ZM87.62 63.62C90.44 63.62 92.315 64.7 92.315 66.44C92.315 68.18 90.44 69.275 87.62 69.275C84.8 69.275 82.925 68.18 82.925 66.44C82.925 64.7 84.8 63.62 87.62 63.62ZM87.62 65.15C85.925 65.15 84.905 65.585 84.905 66.44C84.905 67.295 85.925 67.715 87.62 67.715C89.33 67.715 90.35 67.295 90.35 66.44C90.35 65.585 89.33 65.15 87.62 65.15ZM100.549 57.26H104.659V58.85H100.549V57.26ZM100.549 60.335H104.659V61.94H100.549V60.335ZM98.2388 56.18C100.309 56.18 101.899 57.62 101.899 59.585C101.899 61.55 100.309 62.99 98.2388 62.99C96.1538 62.99 94.5638 61.55 94.5638 59.585C94.5638 57.62 96.1538 56.18 98.2388 56.18ZM98.2388 57.875C97.2188 57.875 96.4688 58.49 96.4688 59.585C96.4688 60.665 97.2188 61.31 98.2388 61.31C99.2588 61.31 100.009 60.665 100.009 59.585C100.009 58.49 99.2588 57.875 98.2388 57.875ZM104.029 55.445H106.024V63.575H104.029V55.445ZM101.314 63.86C104.239 63.86 106.069 64.88 106.069 66.605C106.069 68.33 104.239 69.335 101.314 69.335C98.3888 69.335 96.5588 68.33 96.5588 66.605C96.5588 64.88 98.3888 63.86 101.314 63.86ZM101.314 65.405C99.4988 65.405 98.5238 65.795 98.5238 66.605C98.5238 67.415 99.4988 67.805 101.314 67.805C103.144 67.805 104.104 67.415 104.104 66.605C104.104 65.795 103.144 65.405 101.314 65.405ZM118.233 55.445H120.123V69.335H118.233V55.445ZM116.373 60.785H118.683V62.39H116.373V60.785ZM115.128 55.685H116.973V68.675H115.128V55.685ZM108.588 64.565H109.563C111.273 64.565 112.698 64.505 114.348 64.205L114.498 65.825C112.818 66.155 111.348 66.2 109.563 66.2H108.588V64.565ZM108.588 57.05H113.718V58.655H110.568V65.345H108.588V57.05ZM121.996 56.66H130.171V58.235H121.996V56.66ZM126.091 58.67C128.086 58.67 129.496 59.705 129.496 61.235C129.496 62.765 128.086 63.785 126.091 63.785C124.081 63.785 122.671 62.765 122.671 61.235C122.671 59.705 124.081 58.67 126.091 58.67ZM126.091 60.17C125.191 60.17 124.591 60.53 124.591 61.235C124.591 61.925 125.191 62.285 126.091 62.285C126.976 62.285 127.591 61.925 127.591 61.235C127.591 60.53 126.976 60.17 126.091 60.17ZM130.936 55.445H132.931V64.16H130.936V55.445ZM132.376 59.03H134.776V60.65H132.376V59.03ZM123.661 64.73H132.931V69.335H130.936V66.32H123.661V64.73ZM125.086 55.37H127.081V57.56H125.086V55.37Z" fill="#3B3B3B"/>
<path d="M91.508 78.956H93.02V90.068H91.508V78.956ZM87.848 82.748H89.684V84.044H87.848V82.748ZM89.264 79.136H90.752V89.564H89.264V79.136ZM85.448 80.768H86.648V81.908C86.648 84.404 85.964 86.888 84.2 87.992L83.252 86.816C84.884 85.796 85.448 83.804 85.448 81.908V80.768ZM85.808 80.768H86.996V81.908C86.996 83.756 87.548 85.628 89.156 86.564L88.22 87.728C86.456 86.684 85.808 84.356 85.808 81.908V80.768ZM83.672 80.072H88.628V81.356H83.672V80.072ZM99.4871 85.868C101.887 85.868 103.423 86.66 103.423 87.98C103.423 89.276 101.887 90.068 99.4871 90.068C97.0871 90.068 95.5511 89.276 95.5511 87.98C95.5511 86.66 97.0871 85.868 99.4871 85.868ZM99.4871 87.068C97.9871 87.068 97.1351 87.38 97.1351 87.98C97.1351 88.568 97.9871 88.868 99.4871 88.868C100.987 88.868 101.839 88.568 101.839 87.98C101.839 87.38 100.987 87.068 99.4871 87.068ZM95.6711 79.448H102.703V80.708H95.6711V79.448ZM94.5431 83.912H104.551V85.184H94.5431V83.912ZM98.2511 81.98H99.8351V84.236H98.2511V81.98ZM101.779 79.448H103.363V80.36C103.363 81.236 103.363 82.184 103.063 83.336L101.479 83.168C101.779 82.028 101.779 81.224 101.779 80.36V79.448ZM114.833 84.296H116.429V85.844H114.833V84.296ZM110.621 83.36H120.665V84.608H110.621V83.36ZM111.857 79.28H119.393V82.772H111.857V79.28ZM117.821 80.516H113.429V81.548H117.821V80.516ZM111.773 85.304H119.453V88.16H113.357V89.144H111.785V87.056H117.881V86.492H111.773V85.304ZM111.785 88.796H119.741V89.996H111.785V88.796ZM125.884 85.064H127.48V86.756H125.884V85.064ZM121.66 84.152H131.704V85.412H121.66V84.152ZM122.536 79.256H130.816V80.528H122.536V79.256ZM122.62 82.196H130.732V83.468H122.62V82.196ZM123.952 79.724H125.548V83.024H123.952V79.724ZM127.804 79.724H129.4V83.024H127.804V79.724ZM122.824 86.336H130.504V89.948H122.824V86.336ZM128.944 87.572H124.396V88.688H128.944V87.572ZM141.313 89.084C140.673 89.084 140.081 88.96 139.537 88.712C138.993 88.456 138.537 88.116 138.169 87.692L139.117 86.516C139.461 86.852 139.813 87.108 140.173 87.284C140.533 87.452 140.897 87.536 141.265 87.536C141.609 87.536 141.913 87.48 142.177 87.368C142.441 87.248 142.645 87.08 142.789 86.864C142.941 86.648 143.017 86.4 143.017 86.12C143.017 85.856 142.941 85.62 142.789 85.412C142.637 85.204 142.433 85.04 142.177 84.92C141.929 84.792 141.641 84.728 141.313 84.728C141.025 84.728 140.765 84.756 140.533 84.812C140.309 84.86 140.101 84.924 139.909 85.004C139.717 85.084 139.541 85.168 139.381 85.256L138.565 84.212L139.081 80.552H144.073V82.1H139.993L140.413 81.572L140.017 84.236L139.465 83.96C139.593 83.848 139.777 83.744 140.017 83.648C140.257 83.552 140.521 83.472 140.809 83.408C141.097 83.344 141.381 83.312 141.661 83.312C142.221 83.312 142.729 83.432 143.185 83.672C143.641 83.904 144.005 84.232 144.277 84.656C144.557 85.08 144.697 85.576 144.697 86.144C144.697 86.696 144.545 87.196 144.241 87.644C143.945 88.084 143.541 88.436 143.029 88.7C142.517 88.956 141.945 89.084 141.313 89.084Z" fill="#B6B6B6"/>
<path d="M169.508 79.956H171.02V91.068H169.508V79.956ZM168.02 84.228H169.868V85.512H168.02V84.228ZM167.024 80.148H168.5V90.54H167.024V80.148ZM161.792 87.252H162.572C163.94 87.252 165.08 87.204 166.4 86.964L166.52 88.26C165.176 88.524 164 88.56 162.572 88.56H161.792V87.252ZM161.792 81.24H165.896V82.524H163.376V87.876H161.792V81.24ZM177.487 82.224H180.511V83.508H177.487V82.224ZM177.487 85.668H180.511V86.952H177.487V85.668ZM175.567 80.724C177.223 80.724 178.435 82.26 178.435 84.684C178.435 87.132 177.223 88.668 175.567 88.668C173.899 88.668 172.699 87.132 172.699 84.684C172.699 82.26 173.899 80.724 175.567 80.724ZM175.567 82.176C174.763 82.176 174.211 83.052 174.211 84.684C174.211 86.34 174.763 87.228 175.567 87.228C176.383 87.228 176.923 86.34 176.923 84.684C176.923 83.052 176.383 82.176 175.567 82.176ZM180.259 79.944H181.843V91.092H180.259V79.944ZM192.833 85.296H194.429V86.844H192.833V85.296ZM188.621 84.36H198.665V85.608H188.621V84.36ZM189.857 80.28H197.393V83.772H189.857V80.28ZM195.821 81.516H191.429V82.548H195.821V81.516ZM189.773 86.304H197.453V89.16H191.357V90.144H189.785V88.056H195.881V87.492H189.773V86.304ZM189.785 89.796H197.741V90.996H189.785V89.796ZM203.884 86.064H205.48V87.756H203.884V86.064ZM199.66 85.152H209.704V86.412H199.66V85.152ZM200.536 80.256H208.816V81.528H200.536V80.256ZM200.62 83.196H208.732V84.468H200.62V83.196ZM201.952 80.724H203.548V84.024H201.952V80.724ZM205.804 80.724H207.4V84.024H205.804V80.724ZM200.824 87.336H208.504V90.948H200.824V87.336ZM206.944 88.572H202.396V89.688H206.944V88.572ZM219.313 90.084C218.673 90.084 218.081 89.96 217.537 89.712C216.993 89.456 216.537 89.116 216.169 88.692L217.117 87.516C217.461 87.852 217.813 88.108 218.173 88.284C218.533 88.452 218.897 88.536 219.265 88.536C219.609 88.536 219.913 88.48 220.177 88.368C220.441 88.248 220.645 88.08 220.789 87.864C220.941 87.648 221.017 87.4 221.017 87.12C221.017 86.856 220.941 86.62 220.789 86.412C220.637 86.204 220.433 86.04 220.177 85.92C219.929 85.792 219.641 85.728 219.313 85.728C219.025 85.728 218.765 85.756 218.533 85.812C218.309 85.86 218.101 85.924 217.909 86.004C217.717 86.084 217.541 86.168 217.381 86.256L216.565 85.212L217.081 81.552H222.073V83.1H217.993L218.413 82.572L218.017 85.236L217.465 84.96C217.593 84.848 217.777 84.744 218.017 84.648C218.257 84.552 218.521 84.472 218.809 84.408C219.097 84.344 219.381 84.312 219.661 84.312C220.221 84.312 220.729 84.432 221.185 84.672C221.641 84.904 222.005 85.232 222.277 85.656C222.557 86.08 222.697 86.576 222.697 87.144C222.697 87.696 222.545 88.196 222.241 88.644C221.945 89.084 221.541 89.436 221.029 89.7C220.517 89.956 219.945 90.084 219.313 90.084Z" fill="#B6B6B6"/>
<circle cx="44.5" cy="72.5" r="22" fill="white" stroke="#E5E5E5"/>
<mask id="path-8-inside-2_273_1366" fill="white">
<path d="M10 105H363V170H10V105Z"/>
</mask>
<path d="M363 169H10V171H363V169Z" fill="#E0E0E0" mask="url(#path-8-inside-2_273_1366)"/>
<path d="M87.29 122.635H90.545V124.225H87.29V122.635ZM87.185 125.515H90.44V127.105H87.185V125.515ZM90.23 120.445H92.225V128.44H90.23V120.445ZM85.7 121.39H87.83C87.83 125.17 85.7 127.6 81.485 128.755L80.705 127.18C84.23 126.265 85.7 124.525 85.7 122.35V121.39ZM81.47 121.39H87.095V122.98H81.47V121.39ZM87.62 128.62C90.44 128.62 92.315 129.7 92.315 131.44C92.315 133.18 90.44 134.275 87.62 134.275C84.8 134.275 82.925 133.18 82.925 131.44C82.925 129.7 84.8 128.62 87.62 128.62ZM87.62 130.15C85.925 130.15 84.905 130.585 84.905 131.44C84.905 132.295 85.925 132.715 87.62 132.715C89.33 132.715 90.35 132.295 90.35 131.44C90.35 130.585 89.33 130.15 87.62 130.15ZM100.549 122.26H104.659V123.85H100.549V122.26ZM100.549 125.335H104.659V126.94H100.549V125.335ZM98.2388 121.18C100.309 121.18 101.899 122.62 101.899 124.585C101.899 126.55 100.309 127.99 98.2388 127.99C96.1538 127.99 94.5638 126.55 94.5638 124.585C94.5638 122.62 96.1538 121.18 98.2388 121.18ZM98.2388 122.875C97.2188 122.875 96.4688 123.49 96.4688 124.585C96.4688 125.665 97.2188 126.31 98.2388 126.31C99.2588 126.31 100.009 125.665 100.009 124.585C100.009 123.49 99.2588 122.875 98.2388 122.875ZM104.029 120.445H106.024V128.575H104.029V120.445ZM101.314 128.86C104.239 128.86 106.069 129.88 106.069 131.605C106.069 133.33 104.239 134.335 101.314 134.335C98.3888 134.335 96.5588 133.33 96.5588 131.605C96.5588 129.88 98.3888 128.86 101.314 128.86ZM101.314 130.405C99.4988 130.405 98.5238 130.795 98.5238 131.605C98.5238 132.415 99.4988 132.805 101.314 132.805C103.144 132.805 104.104 132.415 104.104 131.605C104.104 130.795 103.144 130.405 101.314 130.405ZM108.198 121.66H116.373V123.235H108.198V121.66ZM112.293 123.67C114.288 123.67 115.698 124.705 115.698 126.235C115.698 127.765 114.288 128.785 112.293 128.785C110.283 128.785 108.873 127.765 108.873 126.235C108.873 124.705 110.283 123.67 112.293 123.67ZM112.293 125.17C111.393 125.17 110.793 125.53 110.793 126.235C110.793 126.925 111.393 127.285 112.293 127.285C113.178 127.285 113.793 126.925 113.793 126.235C113.793 125.53 113.178 125.17 112.293 125.17ZM117.138 120.445H119.133V129.16H117.138V120.445ZM118.578 124.03H120.978V125.65H118.578V124.03ZM109.863 129.73H119.133V134.335H117.138V131.32H109.863V129.73ZM111.288 120.37H113.283V122.56H111.288V120.37ZM122.581 121.825H128.566V123.4H122.581V121.825ZM124.366 125.8H126.331V130.51H124.366V125.8ZM127.771 121.825H129.736V122.95C129.736 124.3 129.736 125.98 129.361 128.29L127.411 128.11C127.771 125.89 127.771 124.285 127.771 122.95V121.825ZM130.921 120.445H132.916V134.335H130.921V120.445ZM132.331 126.025H134.776V127.675H132.331V126.025ZM122.056 131.53L121.876 129.925C124.321 129.925 127.561 129.88 130.291 129.535L130.396 130.99C127.591 131.47 124.471 131.53 122.056 131.53Z" fill="#3B3B3B"/>
<path d="M91.508 143.956H93.02V155.068H91.508V143.956ZM87.848 147.748H89.684V149.044H87.848V147.748ZM89.264 144.136H90.752V154.564H89.264V144.136ZM85.448 145.768H86.648V146.908C86.648 149.404 85.964 151.888 84.2 152.992L83.252 151.816C84.884 150.796 85.448 148.804 85.448 146.908V145.768ZM85.808 145.768H86.996V146.908C86.996 148.756 87.548 150.628 89.156 151.564L88.22 152.728C86.456 151.684 85.808 149.356 85.808 146.908V145.768ZM83.672 145.072H88.628V146.356H83.672V145.072ZM99.4871 150.868C101.887 150.868 103.423 151.66 103.423 152.98C103.423 154.276 101.887 155.068 99.4871 155.068C97.0871 155.068 95.5511 154.276 95.5511 152.98C95.5511 151.66 97.0871 150.868 99.4871 150.868ZM99.4871 152.068C97.9871 152.068 97.1351 152.38 97.1351 152.98C97.1351 153.568 97.9871 153.868 99.4871 153.868C100.987 153.868 101.839 153.568 101.839 152.98C101.839 152.38 100.987 152.068 99.4871 152.068ZM95.6711 144.448H102.703V145.708H95.6711V144.448ZM94.5431 148.912H104.551V150.184H94.5431V148.912ZM98.2511 146.98H99.8351V149.236H98.2511V146.98ZM101.779 144.448H103.363V145.36C103.363 146.236 103.363 147.184 103.063 148.336L101.479 148.168C101.779 147.028 101.779 146.224 101.779 145.36V144.448ZM114.833 149.296H116.429V150.844H114.833V149.296ZM110.621 148.36H120.665V149.608H110.621V148.36ZM111.857 144.28H119.393V147.772H111.857V144.28ZM117.821 145.516H113.429V146.548H117.821V145.516ZM111.773 150.304H119.453V153.16H113.357V154.144H111.785V152.056H117.881V151.492H111.773V150.304ZM111.785 153.796H119.741V154.996H111.785V153.796ZM125.884 150.064H127.48V151.756H125.884V150.064ZM121.66 149.152H131.704V150.412H121.66V149.152ZM122.536 144.256H130.816V145.528H122.536V144.256ZM122.62 147.196H130.732V148.468H122.62V147.196ZM123.952 144.724H125.548V148.024H123.952V144.724ZM127.804 144.724H129.4V148.024H127.804V144.724ZM122.824 151.336H130.504V154.948H122.824V151.336ZM128.944 152.572H124.396V153.688H128.944V152.572ZM141.313 154.084C140.673 154.084 140.081 153.96 139.537 153.712C138.993 153.456 138.537 153.116 138.169 152.692L139.117 151.516C139.461 151.852 139.813 152.108 140.173 152.284C140.533 152.452 140.897 152.536 141.265 152.536C141.609 152.536 141.913 152.48 142.177 152.368C142.441 152.248 142.645 152.08 142.789 151.864C142.941 151.648 143.017 151.4 143.017 151.12C143.017 150.856 142.941 150.62 142.789 150.412C142.637 150.204 142.433 150.04 142.177 149.92C141.929 149.792 141.641 149.728 141.313 149.728C141.025 149.728 140.765 149.756 140.533 149.812C140.309 149.86 140.101 149.924 139.909 150.004C139.717 150.084 139.541 150.168 139.381 150.256L138.565 149.212L139.081 145.552H144.073V147.1H139.993L140.413 146.572L140.017 149.236L139.465 148.96C139.593 148.848 139.777 148.744 140.017 148.648C140.257 148.552 140.521 148.472 140.809 148.408C141.097 148.344 141.381 148.312 141.661 148.312C142.221 148.312 142.729 148.432 143.185 148.672C143.641 148.904 144.005 149.232 144.277 149.656C144.557 150.08 144.697 150.576 144.697 151.144C144.697 151.696 144.545 152.196 144.241 152.644C143.945 153.084 143.541 153.436 143.029 153.7C142.517 153.956 141.945 154.084 141.313 154.084Z" fill="#B6B6B6"/>
<path d="M169.508 144.956H171.02V156.068H169.508V144.956ZM168.02 149.228H169.868V150.512H168.02V149.228ZM167.024 145.148H168.5V155.54H167.024V145.148ZM161.792 152.252H162.572C163.94 152.252 165.08 152.204 166.4 151.964L166.52 153.26C165.176 153.524 164 153.56 162.572 153.56H161.792V152.252ZM161.792 146.24H165.896V147.524H163.376V152.876H161.792V146.24ZM177.487 147.224H180.511V148.508H177.487V147.224ZM177.487 150.668H180.511V151.952H177.487V150.668ZM175.567 145.724C177.223 145.724 178.435 147.26 178.435 149.684C178.435 152.132 177.223 153.668 175.567 153.668C173.899 153.668 172.699 152.132 172.699 149.684C172.699 147.26 173.899 145.724 175.567 145.724ZM175.567 147.176C174.763 147.176 174.211 148.052 174.211 149.684C174.211 151.34 174.763 152.228 175.567 152.228C176.383 152.228 176.923 151.34 176.923 149.684C176.923 148.052 176.383 147.176 175.567 147.176ZM180.259 144.944H181.843V156.092H180.259V144.944ZM192.833 150.296H194.429V151.844H192.833V150.296ZM188.621 149.36H198.665V150.608H188.621V149.36ZM189.857 145.28H197.393V148.772H189.857V145.28ZM195.821 146.516H191.429V147.548H195.821V146.516ZM189.773 151.304H197.453V154.16H191.357V155.144H189.785V153.056H195.881V152.492H189.773V151.304ZM189.785 154.796H197.741V155.996H189.785V154.796ZM203.884 151.064H205.48V152.756H203.884V151.064ZM199.66 150.152H209.704V151.412H199.66V150.152ZM200.536 145.256H208.816V146.528H200.536V145.256ZM200.62 148.196H208.732V149.468H200.62V148.196ZM201.952 145.724H203.548V149.024H201.952V145.724ZM205.804 145.724H207.4V149.024H205.804V145.724ZM200.824 152.336H208.504V155.948H200.824V152.336ZM206.944 153.572H202.396V154.688H206.944V153.572ZM216.577 155L216.157 153.92L218.725 151.46C218.925 151.268 219.129 151.068 219.337 150.86C219.553 150.652 219.749 150.44 219.925 150.224C220.109 150.008 220.253 149.8 220.357 149.6C220.469 149.392 220.525 149.196 220.525 149.012C220.525 148.812 220.481 148.64 220.393 148.496C220.313 148.352 220.185 148.244 220.009 148.172C219.833 148.092 219.621 148.052 219.373 148.052C219.133 148.052 218.897 148.104 218.665 148.208C218.433 148.304 218.209 148.456 217.993 148.664C217.785 148.864 217.593 149.124 217.417 149.444L216.085 148.652C216.309 148.22 216.589 147.84 216.925 147.512C217.269 147.176 217.665 146.912 218.113 146.72C218.569 146.528 219.053 146.432 219.565 146.432C220.109 146.432 220.589 146.536 221.005 146.744C221.421 146.944 221.741 147.22 221.965 147.572C222.197 147.924 222.313 148.332 222.313 148.796C222.313 149.036 222.273 149.272 222.193 149.504C222.121 149.736 222.017 149.968 221.881 150.2C221.745 150.424 221.581 150.648 221.389 150.872C221.205 151.096 221.005 151.324 220.789 151.556C220.573 151.78 220.345 152.004 220.105 152.228L218.017 154.208L217.885 153.38H222.661V155H216.577Z" fill="#B6B6B6"/>
<circle cx="44.5" cy="137.5" r="22" fill="white" stroke="#E5E5E5"/>
<path d="M82.145 186.06H90.95V187.65H82.145V186.06ZM80.615 191.055H93.185V192.645H80.615V191.055ZM89.75 186.06H91.715V187.17C91.715 188.37 91.715 189.66 91.295 191.46L89.315 191.43C89.75 189.63 89.75 188.355 89.75 187.17V186.06ZM82.085 194.1H91.655V199.185H82.085V194.1ZM89.69 195.645H84.035V197.61H89.69V195.645ZM97.1888 192.615H99.1838V195.345H97.1888V192.615ZM102.199 192.615H104.194V195.345H102.199V192.615ZM94.3988 191.67H106.954V193.26H94.3988V191.67ZM100.654 194.265C103.654 194.265 105.469 195.18 105.469 196.815C105.469 198.435 103.654 199.35 100.654 199.35C97.6388 199.35 95.8238 198.435 95.8238 196.815C95.8238 195.18 97.6388 194.265 100.654 194.265ZM100.654 195.78C98.7938 195.78 97.8488 196.11 97.8488 196.815C97.8488 197.52 98.7938 197.835 100.654 197.835C102.514 197.835 103.459 197.52 103.459 196.815C103.459 196.11 102.514 195.78 100.654 195.78ZM100.684 185.67C103.744 185.67 105.709 186.69 105.709 188.355C105.709 190.005 103.744 191.01 100.684 191.01C97.6088 191.01 95.6588 190.005 95.6588 188.355C95.6588 186.69 97.6088 185.67 100.684 185.67ZM100.684 187.2C98.7788 187.2 97.7138 187.575 97.7138 188.355C97.7138 189.12 98.7788 189.495 100.684 189.495C102.574 189.495 103.654 189.12 103.654 188.355C103.654 187.575 102.574 187.2 100.684 187.2ZM113.433 185.85H115.188V186.495C115.188 189.165 113.088 191.43 109.443 191.97L108.663 190.365C111.858 189.945 113.433 188.13 113.433 186.495V185.85ZM113.808 185.85H115.548V186.495C115.548 188.115 117.138 189.945 120.318 190.365L119.553 191.97C115.908 191.43 113.808 189.165 113.808 186.495V185.85ZM113.448 194.25H115.428V199.335H113.448V194.25ZM108.213 192.99H120.768V194.61H108.213V192.99ZM121.996 186.66H130.171V188.235H121.996V186.66ZM126.091 188.67C128.086 188.67 129.496 189.705 129.496 191.235C129.496 192.765 128.086 193.785 126.091 193.785C124.081 193.785 122.671 192.765 122.671 191.235C122.671 189.705 124.081 188.67 126.091 188.67ZM126.091 190.17C125.191 190.17 124.591 190.53 124.591 191.235C124.591 191.925 125.191 192.285 126.091 192.285C126.976 192.285 127.591 191.925 127.591 191.235C127.591 190.53 126.976 190.17 126.091 190.17ZM130.936 185.445H132.931V194.16H130.936V185.445ZM132.376 189.03H134.776V190.65H132.376V189.03ZM123.661 194.73H132.931V199.335H130.936V196.32H123.661V194.73ZM125.086 185.37H127.081V187.56H125.086V185.37ZM136.38 186.825H142.365V188.4H136.38V186.825ZM138.165 190.8H140.13V195.51H138.165V190.8ZM141.57 186.825H143.535V187.95C143.535 189.3 143.535 190.98 143.16 193.29L141.21 193.11C141.57 190.89 141.57 189.285 141.57 187.95V186.825ZM144.72 185.445H146.715V199.335H144.72V185.445ZM146.13 191.025H148.575V192.675H146.13V191.025ZM135.855 196.53L135.675 194.925C138.12 194.925 141.36 194.88 144.09 194.535L144.195 195.99C141.39 196.47 138.27 196.53 135.855 196.53Z" fill="#3B3B3B"/>
<path d="M91.508 208.956H93.02V220.068H91.508V208.956ZM87.848 212.748H89.684V214.044H87.848V212.748ZM89.264 209.136H90.752V219.564H89.264V209.136ZM85.448 210.768H86.648V211.908C86.648 214.404 85.964 216.888 84.2 217.992L83.252 216.816C84.884 215.796 85.448 213.804 85.448 211.908V210.768ZM85.808 210.768H86.996V211.908C86.996 213.756 87.548 215.628 89.156 216.564L88.22 217.728C86.456 216.684 85.808 214.356 85.808 211.908V210.768ZM83.672 210.072H88.628V211.356H83.672V210.072ZM99.4871 215.868C101.887 215.868 103.423 216.66 103.423 217.98C103.423 219.276 101.887 220.068 99.4871 220.068C97.0871 220.068 95.5511 219.276 95.5511 217.98C95.5511 216.66 97.0871 215.868 99.4871 215.868ZM99.4871 217.068C97.9871 217.068 97.1351 217.38 97.1351 217.98C97.1351 218.568 97.9871 218.868 99.4871 218.868C100.987 218.868 101.839 218.568 101.839 217.98C101.839 217.38 100.987 217.068 99.4871 217.068ZM95.6711 209.448H102.703V210.708H95.6711V209.448ZM94.5431 213.912H104.551V215.184H94.5431V213.912ZM98.2511 211.98H99.8351V214.236H98.2511V211.98ZM101.779 209.448H103.363V210.36C103.363 211.236 103.363 212.184 103.063 213.336L101.479 213.168C101.779 212.028 101.779 211.224 101.779 210.36V209.448ZM114.833 214.296H116.429V215.844H114.833V214.296ZM110.621 213.36H120.665V214.608H110.621V213.36ZM111.857 209.28H119.393V212.772H111.857V209.28ZM117.821 210.516H113.429V211.548H117.821V210.516ZM111.773 215.304H119.453V218.16H113.357V219.144H111.785V217.056H117.881V216.492H111.773V215.304ZM111.785 218.796H119.741V219.996H111.785V218.796ZM125.884 215.064H127.48V216.756H125.884V215.064ZM121.66 214.152H131.704V215.412H121.66V214.152ZM122.536 209.256H130.816V210.528H122.536V209.256ZM122.62 212.196H130.732V213.468H122.62V212.196ZM123.952 209.724H125.548V213.024H123.952V209.724ZM127.804 209.724H129.4V213.024H127.804V209.724ZM122.824 216.336H130.504V219.948H122.824V216.336ZM128.944 217.572H124.396V218.688H128.944V217.572ZM141.625 219.036C140.977 219.036 140.401 218.924 139.897 218.7C139.393 218.468 138.993 218.16 138.697 217.776C138.409 217.384 138.265 216.952 138.265 216.48C138.265 216.152 138.313 215.868 138.409 215.628C138.513 215.388 138.653 215.18 138.829 215.004C139.013 214.828 139.221 214.68 139.453 214.56C139.685 214.44 139.925 214.336 140.173 214.248L140.053 214.788C139.869 214.708 139.689 214.608 139.513 214.488C139.337 214.36 139.181 214.216 139.045 214.056C138.909 213.888 138.801 213.704 138.721 213.504C138.641 213.296 138.601 213.072 138.601 212.832C138.601 212.392 138.733 212 138.997 211.656C139.269 211.304 139.633 211.024 140.089 210.816C140.545 210.608 141.057 210.504 141.625 210.504C142.185 210.504 142.689 210.608 143.137 210.816C143.593 211.024 143.953 211.304 144.217 211.656C144.481 212 144.613 212.392 144.613 212.832C144.613 213.08 144.573 213.308 144.493 213.516C144.413 213.724 144.301 213.908 144.157 214.068C144.021 214.228 143.865 214.368 143.689 214.488C143.521 214.608 143.349 214.708 143.173 214.788L143.089 214.284C143.353 214.364 143.597 214.472 143.821 214.608C144.053 214.736 144.257 214.892 144.433 215.076C144.609 215.26 144.745 215.468 144.841 215.7C144.937 215.932 144.985 216.192 144.985 216.48C144.985 216.96 144.837 217.396 144.541 217.788C144.245 218.172 143.845 218.476 143.341 218.7C142.837 218.924 142.265 219.036 141.625 219.036ZM141.625 217.56C141.937 217.56 142.217 217.512 142.465 217.416C142.713 217.32 142.909 217.184 143.053 217.008C143.197 216.832 143.269 216.632 143.269 216.408C143.269 216.184 143.197 215.988 143.053 215.82C142.909 215.644 142.713 215.508 142.465 215.412C142.217 215.308 141.937 215.256 141.625 215.256C141.297 215.256 141.009 215.308 140.761 215.412C140.513 215.508 140.317 215.644 140.173 215.82C140.029 215.988 139.957 216.184 139.957 216.408C139.957 216.624 140.025 216.82 140.161 216.996C140.305 217.172 140.501 217.312 140.749 217.416C141.005 217.512 141.297 217.56 141.625 217.56ZM141.625 213.864C141.881 213.864 142.113 213.824 142.321 213.744C142.529 213.656 142.693 213.536 142.813 213.384C142.933 213.224 142.993 213.04 142.993 212.832C142.993 212.648 142.933 212.488 142.813 212.352C142.701 212.208 142.541 212.096 142.333 212.016C142.125 211.928 141.889 211.884 141.625 211.884C141.345 211.884 141.097 211.928 140.881 212.016C140.673 212.096 140.509 212.208 140.389 212.352C140.277 212.488 140.221 212.648 140.221 212.832C140.221 213.04 140.281 213.224 140.401 213.384C140.521 213.536 140.685 213.656 140.893 213.744C141.109 213.824 141.353 213.864 141.625 213.864Z" fill="#B6B6B6"/>
<path d="M169.508 209.956H171.02V221.068H169.508V209.956ZM168.02 214.228H169.868V215.512H168.02V214.228ZM167.024 210.148H168.5V220.54H167.024V210.148ZM161.792 217.252H162.572C163.94 217.252 165.08 217.204 166.4 216.964L166.52 218.26C165.176 218.524 164 218.56 162.572 218.56H161.792V217.252ZM161.792 211.24H165.896V212.524H163.376V217.876H161.792V211.24ZM177.487 212.224H180.511V213.508H177.487V212.224ZM177.487 215.668H180.511V216.952H177.487V215.668ZM175.567 210.724C177.223 210.724 178.435 212.26 178.435 214.684C178.435 217.132 177.223 218.668 175.567 218.668C173.899 218.668 172.699 217.132 172.699 214.684C172.699 212.26 173.899 210.724 175.567 210.724ZM175.567 212.176C174.763 212.176 174.211 213.052 174.211 214.684C174.211 216.34 174.763 217.228 175.567 217.228C176.383 217.228 176.923 216.34 176.923 214.684C176.923 213.052 176.383 212.176 175.567 212.176ZM180.259 209.944H181.843V221.092H180.259V209.944ZM192.833 215.296H194.429V216.844H192.833V215.296ZM188.621 214.36H198.665V215.608H188.621V214.36ZM189.857 210.28H197.393V213.772H189.857V210.28ZM195.821 211.516H191.429V212.548H195.821V211.516ZM189.773 216.304H197.453V219.16H191.357V220.144H189.785V218.056H195.881V217.492H189.773V216.304ZM189.785 219.796H197.741V220.996H189.785V219.796ZM203.884 216.064H205.48V217.756H203.884V216.064ZM199.66 215.152H209.704V216.412H199.66V215.152ZM200.536 210.256H208.816V211.528H200.536V210.256ZM200.62 213.196H208.732V214.468H200.62V213.196ZM201.952 210.724H203.548V214.024H201.952V210.724ZM205.804 210.724H207.4V214.024H205.804V210.724ZM200.824 217.336H208.504V220.948H200.824V217.336ZM206.944 218.572H202.396V219.688H206.944V218.572ZM216.577 220L216.157 218.92L218.725 216.46C218.925 216.268 219.129 216.068 219.337 215.86C219.553 215.652 219.749 215.44 219.925 215.224C220.109 215.008 220.253 214.8 220.357 214.6C220.469 214.392 220.525 214.196 220.525 214.012C220.525 213.812 220.481 213.64 220.393 213.496C220.313 213.352 220.185 213.244 220.009 213.172C219.833 213.092 219.621 213.052 219.373 213.052C219.133 213.052 218.897 213.104 218.665 213.208C218.433 213.304 218.209 213.456 217.993 213.664C217.785 213.864 217.593 214.124 217.417 214.444L216.085 213.652C216.309 213.22 216.589 212.84 216.925 212.512C217.269 212.176 217.665 211.912 218.113 211.72C218.569 211.528 219.053 211.432 219.565 211.432C220.109 211.432 220.589 211.536 221.005 211.744C221.421 211.944 221.741 212.22 221.965 212.572C222.197 212.924 222.313 213.332 222.313 213.796C222.313 214.036 222.273 214.272 222.193 214.504C222.121 214.736 222.017 214.968 221.881 215.2C221.745 215.424 221.581 215.648 221.389 215.872C221.205 216.096 221.005 216.324 220.789 216.556C220.573 216.78 220.345 217.004 220.105 217.228L218.017 219.208L217.885 218.38H222.661V220H216.577Z" fill="#B6B6B6"/>
<circle cx="44.5" cy="202.5" r="22" fill="white" stroke="#E5E5E5"/>
<path d="M17.776 14.944H21.248V16.64H17.776V14.944ZM17.664 18.016H21.136V19.712H17.664V18.016ZM20.912 12.608H23.04V21.136H20.912V12.608ZM16.08 13.616H18.352C18.352 17.648 16.08 20.24 11.584 21.472L10.752 19.792C14.512 18.816 16.08 16.96 16.08 14.64V13.616ZM11.568 13.616H17.568V15.312H11.568V13.616ZM18.128 21.328C21.136 21.328 23.136 22.48 23.136 24.336C23.136 26.192 21.136 27.36 18.128 27.36C15.12 27.36 13.12 26.192 13.12 24.336C13.12 22.48 15.12 21.328 18.128 21.328ZM18.128 22.96C16.32 22.96 15.232 23.424 15.232 24.336C15.232 25.248 16.32 25.696 18.128 25.696C19.952 25.696 21.04 25.248 21.04 24.336C21.04 23.424 19.952 22.96 18.128 22.96ZM31.9188 14.544H36.3028V16.24H31.9188V14.544ZM31.9188 17.824H36.3028V19.536H31.9188V17.824ZM29.4548 13.392C31.6628 13.392 33.3588 14.928 33.3588 17.024C33.3588 19.12 31.6628 20.656 29.4548 20.656C27.2308 20.656 25.5348 19.12 25.5348 17.024C25.5348 14.928 27.2308 13.392 29.4548 13.392ZM29.4548 15.2C28.3668 15.2 27.5668 15.856 27.5668 17.024C27.5668 18.176 28.3668 18.864 29.4548 18.864C30.5428 18.864 31.3428 18.176 31.3428 17.024C31.3428 15.856 30.5428 15.2 29.4548 15.2ZM35.6308 12.608H37.7588V21.28H35.6308V12.608ZM32.7348 21.584C35.8548 21.584 37.8068 22.672 37.8068 24.512C37.8068 26.352 35.8548 27.424 32.7348 27.424C29.6148 27.424 27.6628 26.352 27.6628 24.512C27.6628 22.672 29.6148 21.584 32.7348 21.584ZM32.7348 23.232C30.7988 23.232 29.7588 23.648 29.7588 24.512C29.7588 25.376 30.7988 25.792 32.7348 25.792C34.6868 25.792 35.7108 25.376 35.7108 24.512C35.7108 23.648 34.6868 23.232 32.7348 23.232ZM50.7815 12.608H52.7975V27.424H50.7815V12.608ZM48.7975 18.304H51.2615V20.016H48.7975V18.304ZM47.4695 12.864H49.4375V26.72H47.4695V12.864ZM40.4935 22.336H41.5335C43.3575 22.336 44.8775 22.272 46.6375 21.952L46.7975 23.68C45.0055 24.032 43.4375 24.08 41.5335 24.08H40.4935V22.336ZM40.4935 14.32H45.9655V16.032H42.6055V23.168H40.4935V14.32ZM54.7963 13.904H63.5163V15.584H54.7963V13.904ZM59.1643 16.048C61.2923 16.048 62.7963 17.152 62.7963 18.784C62.7963 20.416 61.2923 21.504 59.1643 21.504C57.0203 21.504 55.5163 20.416 55.5163 18.784C55.5163 17.152 57.0203 16.048 59.1643 16.048ZM59.1643 17.648C58.2043 17.648 57.5643 18.032 57.5643 18.784C57.5643 19.52 58.2043 19.904 59.1643 19.904C60.1083 19.904 60.7643 19.52 60.7643 18.784C60.7643 18.032 60.1083 17.648 59.1643 17.648ZM64.3323 12.608H66.4603V21.904H64.3323V12.608ZM65.8683 16.432H68.4283V18.16H65.8683V16.432ZM56.5723 22.512H66.4603V27.424H64.3323V24.208H56.5723V22.512ZM58.0923 12.528H60.2203V14.864H58.0923V12.528Z" fill="#505050"/>
<defs>
<filter id="filter0_d_273_1366" x="0" y="30" width="373" height="215" filterUnits="userSpaceOnUse" color-interpolation-filters="sRGB">
<feFlood flood-opacity="0" result="BackgroundImageFix"/>
<feColorMatrix in="SourceAlpha" type="matrix" values="0 0 0 0 0 0 0 0 0 0 0 0 0 0 0 0 0 0 127 0" result="hardAlpha"/>
<feOffset/>
<feGaussianBlur stdDeviation="5"/>
<feComposite in2="hardAlpha" operator="out"/>
<feColorMatrix type="matrix" values="0 0 0 0 0.789762 0 0 0 0 0.789762 0 0 0 0 0.789762 0 0 0 0.5 0"/>
<feBlend mode="normal" in2="BackgroundImageFix" result="effect1_dropShadow_273_1366"/>
<feBlend mode="normal" in="SourceGraphic" in2="effect1_dropShadow_273_1366" result="shape"/>
</filter>
</defs>
</svg>
