<svg width="40" height="40" viewBox="0 0 40 40" fill="none" xmlns="http://www.w3.org/2000/svg">
<g clip-path="url(#clip0_269_966)">
<path d="M35 33.3333C35 33.7754 34.8244 34.1993 34.5118 34.5118C34.1993 34.8244 33.7754 35 33.3333 35H6.66667C6.22464 35 5.80072 34.8244 5.48816 34.5118C5.1756 34.1993 5 33.7754 5 33.3333V15.8167C4.99982 15.5627 5.0577 15.312 5.16919 15.0838C5.28069 14.8556 5.44287 14.6559 5.64333 14.5L18.9767 4.13C19.2692 3.9024 19.6293 3.77884 20 3.77884C20.3707 3.77884 20.7308 3.9024 21.0233 4.13L34.3567 14.5C34.5571 14.6559 34.7193 14.8556 34.8308 15.0838C34.9423 15.312 35.0002 15.5627 35 15.8167V33.3333Z" fill="#B5B5B5"/>
</g>
<defs>
<clipPath id="clip0_269_966">
<rect width="40" height="40" fill="white"/>
</clipPath>
</defs>
</svg>
