<svg width="381" height="344" viewBox="0 0 381 344" fill="none" xmlns="http://www.w3.org/2000/svg">
<path fill-rule="evenodd" clip-rule="evenodd" d="M171.614 96.1094C196.566 102.438 218.228 117.6 232.653 138.646C234.839 141.834 239.114 142.952 242.441 140.983L321.222 94.3688C324.55 92.4002 328.866 93.4927 330.609 96.9436C342.111 119.718 344.973 146.004 338.509 170.921C331.455 198.111 313.875 221.443 289.634 235.786C265.394 250.128 236.48 254.306 209.253 247.401C184.301 241.072 162.639 225.91 148.213 204.865C146.027 201.676 141.753 200.559 138.426 202.527L59.6442 249.141C56.317 251.11 52.0009 250.017 50.258 246.567C38.7554 223.792 35.8933 197.506 42.3575 172.589C49.4112 145.4 66.992 122.067 91.2323 107.724C115.473 93.3818 144.387 89.2037 171.614 96.1094Z" fill="#6093FF"/>
</svg>

