<svg width="1920" height="1080" viewBox="0 0 1920 1080" fill="none" xmlns="http://www.w3.org/2000/svg">
<g clip-path="url(#clip0_839_2545)">
<rect width="1920" height="1080" fill="white"/>
<path d="M-50.5 213C-55.8 213 -58.8 208.8 -58.8 201.4C-58.8 191.9 -54.2 185 -45.5 180.2L-42.5 185.5C-48.6 189.1 -51.6 193.1 -51.6 199.7L-50.5 207.9L-55.5 201.5C-54 200.2 -52.5 199.4 -50.5 199.4C-46.9 199.4 -43.8 201.8 -43.8 205.9C-43.8 210.3 -46.6 213 -50.5 213ZM-28.6 213C-33.8 213 -36.8 208.8 -36.8 201.4C-36.8 191.9 -32.2 185 -23.5 180.2L-20.6 185.5C-26.6 189.1 -29.5 193.1 -29.5 199.7L-28.6 207.9L-33.5 201.5C-32 200.2 -30.5 199.4 -28.6 199.4C-25 199.4 -21.8 201.8 -21.8 205.9C-21.8 210.3 -24.6 213 -28.6 213ZM-8.74219 226.7H74.0578V235.2H-8.74219V226.7ZM27.1578 232.1H37.5578V266.3H27.1578V232.1ZM32.4578 178.3C51.7578 178.3 64.8578 186.2 64.8578 198.6C64.8578 210.9 51.7578 218.8 32.4578 218.8C13.2578 218.8 0.0578126 210.9 0.0578126 198.6C0.0578126 186.2 13.2578 178.3 32.4578 178.3ZM32.4578 186.7C19.3578 186.7 10.7578 191.2 10.7578 198.6C10.7578 206 19.3578 210.4 32.4578 210.4C45.5578 210.4 54.1578 206 54.1578 198.6C54.1578 191.2 45.5578 186.7 32.4578 186.7ZM104.85 180.5H113.55V191.1C113.55 209.1 104.35 224 88.05 229.9L82.45 221.7C97.05 216.7 104.85 204.5 104.85 191.1V180.5ZM106.85 180.5H115.35V191.3C115.35 203.3 123.25 214.9 137.15 219.7L131.85 227.9C115.95 222.4 106.85 207.9 106.85 191.3V180.5ZM144.15 174.9H154.65V242.1H144.15V174.9ZM151.55 202.2H167.55V210.9H151.55V202.2ZM96.95 256H158.35V264.5H96.95V256ZM96.95 235.7H107.55V260.3H96.95V235.7ZM258.603 174.9H269.103V241.8H258.603V174.9ZM266.003 201.9H282.003V210.6H266.003V201.9ZM211.303 256H272.803V264.5H211.303V256ZM211.303 234.9H221.803V259.6H211.303V234.9ZM223.203 181.1C237.003 181.1 247.503 190.6 247.503 203.9C247.503 217.2 237.003 226.7 223.203 226.7C209.403 226.7 199.003 217.2 199.003 203.9C199.003 190.6 209.403 181.1 223.203 181.1ZM223.203 190.2C215.303 190.2 209.203 195.6 209.203 203.9C209.203 212.2 215.303 217.6 223.203 217.6C231.203 217.6 237.303 212.2 237.303 203.9C237.303 195.6 231.203 190.2 223.203 190.2ZM350.095 174.8H360.595V266.2H350.095V174.8ZM357.795 211H374.295V219.6H357.795V211ZM326.395 184.5H336.695C336.695 211.1 325.395 234.6 295.495 249.6L289.595 241.6C314.295 229 326.395 210.7 326.395 186.3V184.5ZM294.195 184.5H331.795V193H294.195V184.5ZM447.088 174.9H457.588V266.3H447.088V174.9ZM403.988 188.5H412.288V199.8C412.288 220.7 402.488 241 387.688 249.1L380.888 241.1C394.888 234.1 403.988 216.4 403.988 199.8V188.5ZM406.288 188.5H414.588V199.8C414.588 214.2 423.688 231.6 437.488 238.7L431.388 246.8C416.388 239.1 406.288 218.7 406.288 199.8V188.5ZM384.288 184H434.088V192.5H384.288V184ZM430.388 200.3H454.088V209H430.388V200.3ZM430.388 219.6H454.088V228.4H430.388V219.6ZM557.241 175H567.741V230.1H557.241V175ZM563.741 198.4H580.241V207.1H563.741V198.4ZM516.641 234.1H524.641V236.1C524.641 248.8 517.741 260.5 504.041 265.2L499.041 257.5C510.741 253.7 516.641 244.9 516.641 236.1V234.1ZM519.241 234.1H526.841V236.1C526.841 244.6 531.741 253.9 542.741 258.2L538.441 266C524.741 260.9 519.241 248.1 519.241 236.1V234.1ZM550.141 234.1H557.641V236.1C557.641 247.9 551.941 260.8 538.441 266L534.141 258.2C545.041 253.7 550.141 244.3 550.141 236.1V234.1ZM552.341 234.1H560.341V236.1C560.341 245.1 566.241 253.9 578.041 257.5L573.041 265.2C559.141 260.5 552.341 249.2 552.341 236.1V234.1ZM518.541 208.5H529.041V222.8H518.541V208.5ZM497.141 227.3L495.941 219C511.841 219 533.741 218.9 551.941 216.2L552.741 223.5C533.941 226.9 512.741 227.2 497.141 227.3ZM523.641 177.6C536.941 177.6 546.241 184.5 546.241 194.7C546.241 204.9 536.941 211.7 523.641 211.7C510.341 211.7 500.941 204.9 500.941 194.7C500.941 184.5 510.341 177.6 523.641 177.6ZM523.641 185.3C515.941 185.3 510.741 188.9 510.741 194.7C510.741 200.5 515.941 204.1 523.641 204.1C531.241 204.1 536.441 200.5 536.441 194.7C536.441 188.9 531.241 185.3 523.641 185.3ZM648.533 174.8H659.033V266.4H648.533V174.8ZM656.633 209.9H673.233V218.6H656.633V209.9ZM591.933 235.3H599.333C615.533 235.3 627.533 234.7 641.033 232.2L642.133 241C628.133 243.5 615.933 244 599.333 244H591.933V235.3ZM591.933 183.5H634.433V192H602.333V239.3H591.933V183.5ZM690.525 259.4C686.125 259.4 682.825 256 682.825 251.3C682.825 246.5 686.125 243.2 690.525 243.2C694.825 243.2 698.225 246.5 698.225 251.3C698.225 256 694.825 259.4 690.525 259.4ZM720.31 259.4C715.91 259.4 712.61 256 712.61 251.3C712.61 246.5 715.91 243.2 720.31 243.2C724.61 243.2 728.01 246.5 728.01 251.3C728.01 256 724.61 259.4 720.31 259.4ZM732.212 212.4L729.312 207.2C735.312 203.5 738.312 199.5 738.312 192.9L737.212 184.8L742.212 191C740.712 192.4 739.212 193.2 737.312 193.2C733.712 193.2 730.512 190.8 730.512 186.6C730.512 182.2 733.312 179.6 737.312 179.6C742.612 179.6 745.512 183.8 745.512 191.1C745.512 200.6 741.012 207.6 732.212 212.4ZM754.212 212.4L751.212 207.2C757.312 203.5 760.312 199.5 760.312 192.9L759.212 184.8L764.212 191C762.812 192.4 761.212 193.2 759.312 193.2C755.612 193.2 752.512 190.8 752.512 186.6C752.512 182.2 755.412 179.6 759.312 179.6C764.512 179.6 767.512 183.8 767.512 191.1C767.512 200.6 762.912 207.6 754.212 212.4Z" fill="#6093FF" fill-opacity="0.26"/>
<path d="M1506.5 213C1501.2 213 1498.2 208.8 1498.2 201.4C1498.2 191.9 1502.8 185 1511.5 180.2L1514.5 185.5C1508.4 189.1 1505.4 193.1 1505.4 199.7L1506.5 207.9L1501.5 201.5C1503 200.2 1504.5 199.4 1506.5 199.4C1510.1 199.4 1513.2 201.8 1513.2 205.9C1513.2 210.3 1510.4 213 1506.5 213ZM1528.4 213C1523.2 213 1520.2 208.8 1520.2 201.4C1520.2 191.9 1524.8 185 1533.5 180.2L1536.4 185.5C1530.4 189.1 1527.5 193.1 1527.5 199.7L1528.4 207.9L1523.5 201.5C1525 200.2 1526.5 199.4 1528.4 199.4C1532 199.4 1535.2 201.8 1535.2 205.9C1535.2 210.3 1532.4 213 1528.4 213ZM1549.26 183.7H1591.56V192.1H1549.26V183.7ZM1548.86 229L1547.76 220.4C1559.66 220.4 1579.06 220.2 1592.96 218.3L1593.56 226.1C1579.26 228.7 1560.56 229 1548.86 229ZM1556.06 190.5H1565.66V223H1556.06V190.5ZM1575.26 190.5H1584.76V223H1575.26V190.5ZM1564.86 256H1628.16V264.5H1564.86V256ZM1564.86 235.7H1575.36V261.6H1564.86V235.7ZM1615.76 175H1625.66V244.1H1615.76V175ZM1602.66 202.1H1618.66V210.7H1602.66V202.1ZM1596.86 176.6H1606.76V241H1596.86V176.6ZM1651.25 208.1H1713.05V216.6H1651.25V208.1ZM1640.25 227.2H1723.05V235.7H1640.25V227.2ZM1676.15 232H1686.55V266.1H1676.15V232ZM1651.25 180H1711.95V188.5H1661.95V212.2H1651.25V180ZM1740.94 183.4H1799.34V191.9H1740.94V183.4ZM1732.34 245.7H1814.94V254.3H1732.34V245.7ZM1763.14 213.6H1773.64V250H1763.14V213.6ZM1795.44 183.4H1805.94V192.3C1805.94 203.7 1805.94 216.4 1802.44 235.3L1791.94 234.1C1795.44 216.3 1795.44 203.3 1795.44 192.3V183.4ZM1907.8 175H1918.3V230.1H1907.8V175ZM1914.3 198.4H1930.8V207.1H1914.3V198.4ZM1867.2 234.1H1875.2V236.1C1875.2 248.8 1868.3 260.5 1854.6 265.2L1849.6 257.5C1861.3 253.7 1867.2 244.9 1867.2 236.1V234.1ZM1869.8 234.1H1877.4V236.1C1877.4 244.6 1882.3 253.9 1893.3 258.2L1889 266C1875.3 260.9 1869.8 248.1 1869.8 236.1V234.1ZM1900.7 234.1H1908.2V236.1C1908.2 247.9 1902.5 260.8 1889 266L1884.7 258.2C1895.6 253.7 1900.7 244.3 1900.7 236.1V234.1ZM1902.9 234.1H1910.9V236.1C1910.9 245.1 1916.8 253.9 1928.6 257.5L1923.6 265.2C1909.7 260.5 1902.9 249.2 1902.9 236.1V234.1ZM1869.1 208.5H1879.6V222.8H1869.1V208.5ZM1847.7 227.3L1846.5 219C1862.4 219 1884.3 218.9 1902.5 216.2L1903.3 223.5C1884.5 226.9 1863.3 227.2 1847.7 227.3ZM1874.2 177.6C1887.5 177.6 1896.8 184.5 1896.8 194.7C1896.8 204.9 1887.5 211.7 1874.2 211.7C1860.9 211.7 1851.5 204.9 1851.5 194.7C1851.5 184.5 1860.9 177.6 1874.2 177.6ZM1874.2 185.3C1866.5 185.3 1861.3 188.9 1861.3 194.7C1861.3 200.5 1866.5 204.1 1874.2 204.1C1881.8 204.1 1887 200.5 1887 194.7C1887 188.9 1881.8 185.3 1874.2 185.3ZM1999.09 174.8H2009.59V266.4H1999.09V174.8ZM2007.19 209.9H2023.79V218.6H2007.19V209.9ZM1942.49 235.3H1949.89C1966.09 235.3 1978.09 234.7 1991.59 232.2L1992.69 241C1978.69 243.5 1966.49 244 1949.89 244H1942.49V235.3ZM1942.49 183.5H1984.99V192H1952.89V239.3H1942.49V183.5ZM2041.08 259.4C2036.68 259.4 2033.38 256 2033.38 251.3C2033.38 246.5 2036.68 243.2 2041.08 243.2C2045.38 243.2 2048.78 246.5 2048.78 251.3C2048.78 256 2045.38 259.4 2041.08 259.4ZM2070.86 259.4C2066.46 259.4 2063.16 256 2063.16 251.3C2063.16 246.5 2066.46 243.2 2070.86 243.2C2075.16 243.2 2078.56 246.5 2078.56 251.3C2078.56 256 2075.16 259.4 2070.86 259.4ZM2082.77 212.4L2079.87 207.2C2085.87 203.5 2088.87 199.5 2088.87 192.9L2087.77 184.8L2092.77 191C2091.27 192.4 2089.77 193.2 2087.87 193.2C2084.27 193.2 2081.07 190.8 2081.07 186.6C2081.07 182.2 2083.87 179.6 2087.87 179.6C2093.17 179.6 2096.07 183.8 2096.07 191.1C2096.07 200.6 2091.57 207.6 2082.77 212.4ZM2104.77 212.4L2101.77 207.2C2107.87 203.5 2110.87 199.5 2110.87 192.9L2109.77 184.8L2114.77 191C2113.37 192.4 2111.77 193.2 2109.87 193.2C2106.17 193.2 2103.07 190.8 2103.07 186.6C2103.07 182.2 2105.97 179.6 2109.87 179.6C2115.07 179.6 2118.07 183.8 2118.07 191.1C2118.07 200.6 2113.47 207.6 2104.77 212.4Z" fill="#6093FF" fill-opacity="0.26"/>
<path d="M339.5 607C334.2 607 331.2 602.8 331.2 595.4C331.2 585.9 335.8 579 344.5 574.2L347.5 579.5C341.4 583.1 338.4 587.1 338.4 593.7L339.5 601.9L334.5 595.5C336 594.2 337.5 593.4 339.5 593.4C343.1 593.4 346.2 595.8 346.2 599.9C346.2 604.3 343.4 607 339.5 607ZM361.4 607C356.2 607 353.2 602.8 353.2 595.4C353.2 585.9 357.8 579 366.5 574.2L369.4 579.5C363.4 583.1 360.5 587.1 360.5 593.7L361.4 601.9L356.5 595.5C358 594.2 359.5 593.4 361.4 593.4C365 593.4 368.2 595.8 368.2 599.9C368.2 604.3 365.4 607 361.4 607ZM417.258 601.5H427.658V618.2H417.258V601.5ZM381.258 613.6H463.858V622H381.258V613.6ZM422.458 628.4C442.158 628.4 453.958 634.1 453.958 644.3C453.958 654.5 442.158 660.2 422.458 660.2C402.758 660.2 390.958 654.5 390.958 644.3C390.958 634.1 402.758 628.4 422.458 628.4ZM422.458 636.4C408.958 636.4 401.558 639.1 401.558 644.3C401.558 649.6 408.958 652.3 422.458 652.3C435.958 652.3 443.358 649.6 443.358 644.3C443.358 639.1 435.958 636.4 422.458 636.4ZM415.558 576.9H424.858V579.4C424.858 593.7 410.058 604.1 389.058 606.4L385.358 598.1C403.358 596.4 415.558 588.3 415.558 579.4V576.9ZM420.358 576.9H429.558V579.4C429.558 588.3 441.758 596.4 459.858 598.1L456.158 606.4C435.158 604.1 420.358 593.7 420.358 579.4V576.9ZM388.858 572.9H456.458V581.3H388.858V572.9ZM538.05 568.8H548.55V660.4H538.05V568.8ZM499.85 575.6C513.55 575.6 523.45 588.1 523.45 607.8C523.45 627.5 513.55 640.1 499.85 640.1C486.25 640.1 476.35 627.5 476.35 607.8C476.35 588.1 486.25 575.6 499.85 575.6ZM499.85 585.1C491.85 585.1 486.35 593.6 486.35 607.8C486.35 622.1 491.85 630.7 499.85 630.7C507.85 630.7 513.35 622.1 513.35 607.8C513.35 593.6 507.85 585.1 499.85 585.1ZM652.703 568.9H663.303V616H652.703V568.9ZM602.703 620.1H663.303V643.3H613.203V655.8H602.903V635.6H652.903V628.3H602.703V620.1ZM602.903 651.2H666.203V659.5H602.903V651.2ZM591.803 574.8H640.903V583H591.803V574.8ZM590.403 613.6L589.303 605.1C605.503 605.1 627.103 604.8 644.803 602.6L645.403 610.1C627.303 613 606.303 613.5 590.403 613.6ZM600.003 578.5H610.003V609.1H600.003V578.5ZM622.503 578.5H632.703V609.1H622.503V578.5ZM699.095 615.7H709.495V642.2H699.095V615.7ZM732.595 615.7H743.095V642.2H732.595V615.7ZM679.795 640.5H762.595V649.1H679.795V640.5ZM720.995 574.1C740.495 574.1 754.595 583.5 754.595 598.1C754.595 612.6 740.495 622 720.995 622C701.495 622 687.395 612.6 687.395 598.1C687.395 583.5 701.495 574.1 720.995 574.1ZM720.995 582.3C707.195 582.3 697.595 588.4 697.595 598.1C697.595 607.7 707.195 613.8 720.995 613.8C734.795 613.8 744.395 607.7 744.395 598.1C744.395 588.4 734.795 582.3 720.995 582.3ZM832.588 569H843.088V637.4H832.588V569ZM839.988 598H855.988V606.7H839.988V598ZM771.888 579.4H825.688V587.7H771.888V579.4ZM798.788 591.9C811.788 591.9 820.888 598.9 820.888 609.2C820.888 619.6 811.788 626.5 798.788 626.5C785.688 626.5 776.588 619.6 776.588 609.2C776.588 598.9 785.688 591.9 798.788 591.9ZM798.788 600C791.588 600 786.688 603.5 786.688 609.2C786.688 615 791.588 618.4 798.788 618.4C805.988 618.4 810.888 615 810.888 609.2C810.888 603.5 805.988 600 798.788 600ZM793.587 568.9H803.988V583.5H793.587V568.9ZM785.288 650H846.788V658.5H785.288V650ZM785.288 632.1H795.788V653.6H785.288V632.1ZM931.68 568.9H941.68V660.3H931.68V568.9ZM895.18 603.1H917.38V611.6H895.18V603.1ZM913.08 570.8H922.88V655.9H913.08V570.8ZM866.78 630.4H872.88C886.48 630.4 895.08 630 905.18 627.9L906.08 636.5C895.78 638.7 886.88 639.1 872.88 639.1H866.78V630.4ZM866.78 579.7H901.38V588.1H877.08V633.9H866.78V579.7ZM966.072 653.4C961.672 653.4 958.372 650 958.372 645.3C958.372 640.5 961.672 637.2 966.072 637.2C970.372 637.2 973.772 640.5 973.772 645.3C973.772 650 970.372 653.4 966.072 653.4ZM995.857 653.4C991.457 653.4 988.157 650 988.157 645.3C988.157 640.5 991.457 637.2 995.857 637.2C1000.16 637.2 1003.56 640.5 1003.56 645.3C1003.56 650 1000.16 653.4 995.857 653.4ZM1007.76 606.4L1004.86 601.2C1010.86 597.5 1013.86 593.5 1013.86 586.9L1012.76 578.8L1017.76 585C1016.26 586.4 1014.76 587.2 1012.86 587.2C1009.26 587.2 1006.06 584.8 1006.06 580.6C1006.06 576.2 1008.86 573.6 1012.86 573.6C1018.16 573.6 1021.06 577.8 1021.06 585.1C1021.06 594.6 1016.56 601.6 1007.76 606.4ZM1029.76 606.4L1026.76 601.2C1032.86 597.5 1035.86 593.5 1035.86 586.9L1034.76 578.8L1039.76 585C1038.36 586.4 1036.76 587.2 1034.86 587.2C1031.16 587.2 1028.06 584.8 1028.06 580.6C1028.06 576.2 1030.96 573.6 1034.86 573.6C1040.06 573.6 1043.06 577.8 1043.06 585.1C1043.06 594.6 1038.46 601.6 1029.76 606.4Z" fill="#6093FF" fill-opacity="0.26"/>
<path d="M1172.5 607C1167.2 607 1164.2 602.8 1164.2 595.4C1164.2 585.9 1168.8 579 1177.5 574.2L1180.5 579.5C1174.4 583.1 1171.4 587.1 1171.4 593.7L1172.5 601.9L1167.5 595.5C1169 594.2 1170.5 593.4 1172.5 593.4C1176.1 593.4 1179.2 595.8 1179.2 599.9C1179.2 604.3 1176.4 607 1172.5 607ZM1194.4 607C1189.2 607 1186.2 602.8 1186.2 595.4C1186.2 585.9 1190.8 579 1199.5 574.2L1202.4 579.5C1196.4 583.1 1193.5 587.1 1193.5 593.7L1194.4 601.9L1189.5 595.5C1191 594.2 1192.5 593.4 1194.4 593.4C1198 593.4 1201.2 595.8 1201.2 599.9C1201.2 604.3 1198.4 607 1194.4 607ZM1234.66 633.4H1245.16V660.5H1234.66V633.4ZM1266.16 633.4H1276.66V660.5H1266.16V633.4ZM1218.46 578.6H1292.36V586.9H1218.46V578.6ZM1214.36 627.4H1297.16V635.8H1214.36V627.4ZM1255.56 591.4C1274.66 591.4 1285.96 596.8 1285.96 606.6C1285.96 616.5 1274.66 622 1255.56 622C1236.46 622 1225.16 616.5 1225.16 606.6C1225.16 596.8 1236.46 591.4 1255.56 591.4ZM1255.56 599.2C1242.86 599.2 1236.06 601.7 1236.06 606.6C1236.06 611.6 1242.86 614.1 1255.56 614.1C1268.36 614.1 1275.16 611.6 1275.16 606.6C1275.16 601.7 1268.36 599.2 1255.56 599.2ZM1250.36 568.6H1260.76V584.5H1250.36V568.6ZM1329.55 582.6H1337.95V595.4C1337.95 615.5 1327.65 635.4 1311.95 642.9L1305.95 634.6C1320.05 628.1 1329.55 611 1329.55 595.4V582.6ZM1331.75 582.6H1340.05V595.4C1340.05 610.5 1349.45 626.3 1363.75 632.3L1357.95 640.6C1342.05 633.5 1331.75 615 1331.75 595.4V582.6ZM1309.25 578H1360.35V586.7H1309.25V578ZM1371.05 568.9H1381.55V660.3H1371.05V568.9ZM1432.54 576.1H1441.84V578.7C1441.84 592.9 1427.04 603.3 1406.04 605.6L1402.34 597.3C1420.34 595.6 1432.54 587.5 1432.54 578.7V576.1ZM1437.34 576.1H1446.54V578.7C1446.54 587.5 1458.74 595.6 1476.84 597.3L1473.14 605.6C1452.14 603.3 1437.34 592.9 1437.34 578.7V576.1ZM1405.84 572.1H1473.44V580.5H1405.84V572.1ZM1434.24 600.8H1444.64V617.2H1434.24V600.8ZM1408.14 629.2H1470.84V659.2H1408.14V629.2ZM1460.64 637.5H1418.44V650.8H1460.64V637.5ZM1398.24 612.6H1480.84V620.9H1398.24V612.6ZM1523.2 598.6H1586.4V607H1523.2V598.6ZM1512.8 619.3H1595.6V627.8H1512.8V619.3ZM1548.6 624.1H1559V660.3H1548.6V624.1ZM1523.2 573.3H1533.7V602.6H1523.2V573.3ZM1665.09 568.8H1675.59V660.2H1665.09V568.8ZM1672.79 605H1689.29V613.6H1672.79V605ZM1641.39 578.5H1651.69C1651.69 605.1 1640.39 628.6 1610.49 643.6L1604.59 635.6C1629.29 623 1641.39 604.7 1641.39 580.3V578.5ZM1609.19 578.5H1646.79V587H1609.19V578.5ZM1784.04 568.9H1794.54V616.2H1784.04V568.9ZM1734.64 620.6H1794.54V643.5H1745.04V654.9H1734.84V635.9H1784.14V628.7H1734.64V620.6ZM1734.84 651.4H1797.24V659.5H1734.84V651.4ZM1723.94 572.7H1734.24V584.6H1756.94V572.7H1767.34V612.8H1723.94V572.7ZM1734.24 592.6V604.5H1756.94V592.6H1734.24ZM1876.43 568.8H1886.83V660.4H1876.43V568.8ZM1859.73 589.1H1878.63V597.6H1859.73V589.1ZM1814.43 630.9H1821.43C1835.33 630.9 1846.73 630.5 1860.33 628.4L1861.23 637C1847.33 639.2 1835.63 639.6 1821.43 639.6H1814.43V630.9ZM1814.23 576.9H1854.53V610.7H1824.83V632.9H1814.43V602.4H1844.23V585.3H1814.23V576.9ZM1859.33 614H1878.23V622.5H1859.33V614ZM1938.53 578.4H1947.63V581.8C1947.63 598 1932.13 610.5 1911.63 613.6L1907.63 605.4C1925.53 603 1938.53 592.6 1938.53 581.8V578.4ZM1941.43 578.4H1950.43V581.8C1950.43 592.6 1963.53 603 1981.33 605.4L1977.43 613.6C1956.83 610.5 1941.43 598 1941.43 581.8V578.4ZM1939.03 626.1H1949.43V660.3H1939.03V626.1ZM1903.23 620.2H1985.83V628.7H1903.23V620.2ZM1910.73 574.1H1978.03V582.5H1910.73V574.1ZM2039.12 584.2H2063.52V592.7H2039.12V584.2ZM2039.12 603.8H2063.82V612.3H2039.12V603.8ZM1999.12 576.6H2041.52V620.2H1999.12V576.6ZM2031.22 584.9H2009.42V611.9H2031.22V584.9ZM2060.42 569H2070.92V635.6H2060.42V569ZM2011.42 650H2073.02V658.5H2011.42V650ZM2011.42 629.5H2021.92V654.2H2011.42V629.5ZM2092.81 606.4L2089.91 601.2C2095.91 597.5 2098.91 593.5 2098.91 586.9L2097.81 578.8L2102.81 585C2101.31 586.4 2099.81 587.2 2097.91 587.2C2094.31 587.2 2091.11 584.8 2091.11 580.6C2091.11 576.2 2093.91 573.6 2097.91 573.6C2103.21 573.6 2106.11 577.8 2106.11 585.1C2106.11 594.6 2101.61 601.6 2092.81 606.4ZM2114.81 606.4L2111.81 601.2C2117.91 597.5 2120.91 593.5 2120.91 586.9L2119.81 578.8L2124.81 585C2123.41 586.4 2121.81 587.2 2119.91 587.2C2116.21 587.2 2113.11 584.8 2113.11 580.6C2113.11 576.2 2116.01 573.6 2119.91 573.6C2125.11 573.6 2128.11 577.8 2128.11 585.1C2128.11 594.6 2123.51 601.6 2114.81 606.4Z" fill="#6093FF" fill-opacity="0.26"/>
<path d="M25.5 803C20.2 803 17.2 798.8 17.2 791.4C17.2 781.9 21.8 775 30.5 770.2L33.5 775.5C27.4 779.1 24.4 783.1 24.4 789.7L25.5 797.9L20.5 791.5C22 790.2 23.5 789.4 25.5 789.4C29.1 789.4 32.2 791.8 32.2 795.9C32.2 800.3 29.4 803 25.5 803ZM47.4 803C42.2 803 39.2 798.8 39.2 791.4C39.2 781.9 43.8 775 52.5 770.2L55.4 775.5C49.4 779.1 46.5 783.1 46.5 789.7L47.4 797.9L42.5 791.5C44 790.2 45.5 789.4 47.4 789.4C51 789.4 54.2 791.8 54.2 795.9C54.2 800.3 51.4 803 47.4 803ZM88.9578 778.6H97.2578V791.4C97.2578 811.1 86.9578 831.3 71.5578 838.9L65.5578 830.6C79.5578 823.9 88.9578 806.7 88.9578 791.4V778.6ZM91.0578 778.6H99.3578V791.4C99.3578 805.6 108.258 821.8 122.258 828.3L116.358 836.6C100.958 829.2 91.0578 810.1 91.0578 791.4V778.6ZM68.9578 774H118.658V782.7H68.9578V774ZM127.658 764.9H138.158V856.3H127.658V764.9ZM135.758 800.9H152.358V809.6H135.758V800.9ZM203.511 820.8H211.511V824.9C211.511 837.7 204.611 850 190.911 855L185.811 847.3C197.511 843.2 203.511 833.7 203.511 824.9V820.8ZM206.011 820.8H213.611V824.9C213.611 833.9 218.711 843.5 229.711 848L225.411 855.9C211.611 850.6 206.011 837.6 206.011 824.9V820.8ZM237.111 820.8H244.711V824.9C244.711 836.5 238.911 850.3 225.411 855.9L221.111 848C232.011 843.1 237.111 832.9 237.111 824.9V820.8ZM239.411 820.8H247.411V824.9C247.411 834.3 253.311 843.5 265.111 847.3L260.011 855C246.111 850.2 239.411 838.3 239.411 824.9V820.8ZM246.611 765H257.111V816.9H246.611V765ZM207.811 770C221.811 770 232.011 778.8 232.011 791.6C232.011 804.2 221.811 813.1 207.811 813.1C193.811 813.1 183.511 804.2 183.511 791.6C183.511 778.8 193.811 770 207.811 770ZM207.811 778.7C199.711 778.7 193.711 783.8 193.711 791.6C193.711 799.4 199.711 804.4 207.811 804.4C215.911 804.4 221.811 799.4 221.811 791.6C221.811 783.8 215.911 778.7 207.811 778.7ZM284.503 791.1H347.103V799.5H284.503V791.1ZM273.703 810.5H356.503V819H273.703V810.5ZM284.503 768.2H294.903V795.3H284.503V768.2ZM283.803 845.7H347.603V854.2H283.803V845.7ZM283.803 827.3H294.203V848H283.803V827.3ZM409.756 772.4H418.256V787.4C418.256 808.7 408.756 829.1 393.056 837.1L386.656 828.7C400.856 821.8 409.756 804.3 409.756 787.4V772.4ZM411.756 772.4H420.156V787.4C420.156 803.7 428.756 820.3 442.456 827.1L436.056 835.4C420.856 827.5 411.756 808 411.756 787.4V772.4ZM448.556 764.9H459.056V856.3H448.556V764.9ZM456.656 801.1H473.256V809.8H456.656V801.1ZM541.048 765H551.548V819.3H541.048V765ZM548.448 787.5H564.448V796.2H548.448V787.5ZM493.148 823.6H551.548V855.2H493.148V823.6ZM541.348 831.8H503.448V846.8H541.348V831.8ZM483.848 806.7H491.248C508.448 806.7 519.948 806.3 533.448 803.9L534.348 812.3C520.648 814.8 508.848 815.3 491.248 815.3H483.848V806.7ZM483.648 769.7H525.048V796H494.148V811.5H483.848V788.1H514.748V778.1H483.648V769.7ZM585.341 824.6C582.941 807.7 600.441 801.3 600.441 790.5C600.441 784.9 596.941 780.8 590.641 780.8C585.941 780.8 581.841 783.1 578.441 786.9L571.941 780.9C576.841 775.3 583.541 771.3 591.941 771.3C603.641 771.3 611.641 777.9 611.641 789.7C611.641 804.2 593.841 809.6 595.541 824.6H585.341ZM590.641 849.4C586.241 849.4 582.941 846 582.941 841.3C582.941 836.5 586.241 833.2 590.641 833.2C594.941 833.2 598.341 836.5 598.341 841.3C598.341 846 594.941 849.4 590.641 849.4ZM623.837 802.4L620.937 797.2C626.937 793.5 629.937 789.5 629.937 782.9L628.837 774.8L633.837 781C632.337 782.4 630.837 783.2 628.937 783.2C625.337 783.2 622.137 780.8 622.137 776.6C622.137 772.2 624.937 769.6 628.937 769.6C634.237 769.6 637.137 773.8 637.137 781.1C637.137 790.6 632.637 797.6 623.837 802.4ZM645.837 802.4L642.837 797.2C648.937 793.5 651.937 789.5 651.937 782.9L650.837 774.8L655.837 781C654.437 782.4 652.837 783.2 650.937 783.2C647.237 783.2 644.137 780.8 644.137 776.6C644.137 772.2 647.037 769.6 650.937 769.6C656.137 769.6 659.137 773.8 659.137 781.1C659.137 790.6 654.537 797.6 645.837 802.4Z" fill="#6093FF" fill-opacity="0.26"/>
<path d="M754.5 803C749.2 803 746.2 798.8 746.2 791.4C746.2 781.9 750.8 775 759.5 770.2L762.5 775.5C756.4 779.1 753.4 783.1 753.4 789.7L754.5 797.9L749.5 791.5C751 790.2 752.5 789.4 754.5 789.4C758.1 789.4 761.2 791.8 761.2 795.9C761.2 800.3 758.4 803 754.5 803ZM776.4 803C771.2 803 768.2 798.8 768.2 791.4C768.2 781.9 772.8 775 781.5 770.2L784.4 775.5C778.4 779.1 775.5 783.1 775.5 789.7L776.4 797.9L771.5 791.5C773 790.2 774.5 789.4 776.4 789.4C780 789.4 783.2 791.8 783.2 795.9C783.2 800.3 780.4 803 776.4 803ZM799.858 773.4H842.258V833.6H799.858V773.4ZM831.958 781.7H810.158V825.3H831.958V781.7ZM861.758 764.8H872.158V856.4H861.758V764.8ZM840.358 797.4H865.858V805.9H840.358V797.4ZM953.25 764.8H963.75V856.4H953.25V764.8ZM893.45 826.1H901.25C916.95 826.1 930.25 825.5 945.65 822.9L946.75 831.4C930.95 834.1 917.35 834.7 901.25 834.7H893.45V826.1ZM893.25 773H935.85V806.9H904.05V829.3H893.45V798.5H925.25V781.5H893.25V773ZM980.242 806.6H1063.04V815.1H980.242V806.6ZM990.642 845.5H1055.04V854H990.642V845.5ZM990.642 823.8H1001.14V846.9H990.642V823.8ZM987.942 770.4H1010.84V778.8H987.942V770.4ZM1007.64 770.4H1017.84V773.5C1017.84 780.2 1017.94 792.7 1012.44 811.2L1002.34 809.1C1007.64 791.6 1007.64 780 1007.64 773.5V770.4ZM1023.64 770.4H1047.74V778.8H1023.64V770.4ZM1043.04 770.4H1053.24V774C1053.24 780.7 1053.34 792.9 1048.94 810.5L1038.84 809C1043.04 792 1043.04 780.4 1043.04 774V770.4ZM1119.4 771.6C1132.9 771.6 1142.5 784.1 1142.5 803.8C1142.5 823.5 1132.9 836.1 1119.4 836.1C1105.9 836.1 1096.3 823.5 1096.3 803.8C1096.3 784.1 1105.9 771.6 1119.4 771.6ZM1119.4 781.1C1111.6 781.1 1106.3 789.6 1106.3 803.8C1106.3 818.1 1111.6 826.7 1119.4 826.7C1127.3 826.7 1132.6 818.1 1132.6 803.8C1132.6 789.6 1127.3 781.1 1119.4 781.1ZM1160.2 764.8H1170.6V856.4H1160.2V764.8ZM1139.3 798.9H1164.7V807.3H1139.3V798.9ZM1251.49 764.9H1261.99V856.5H1251.49V764.9ZM1192.49 825.4H1200.09C1218.69 825.4 1229.99 824.9 1242.99 822.5L1243.99 831.2C1230.79 833.7 1218.99 834.2 1200.09 834.2H1192.49V825.4ZM1192.49 773.3H1235.99V781.9H1202.89V828.7H1192.49V773.3ZM1311.44 818.5H1321.24V828.8H1334.14V818.5H1343.84V855.2H1311.44V818.5ZM1321.24 836.5V847.2H1334.14V836.5H1321.24ZM1359.94 817.8H1367.94V825.1C1367.94 837.9 1362.04 850.7 1349.04 856L1343.84 848.1C1354.84 843.6 1359.94 834.1 1359.94 825.1V817.8ZM1362.24 817.8H1370.34V825.1C1370.34 834.7 1375.34 844.1 1386.44 848.1L1381.14 856C1367.94 850.9 1362.24 838.7 1362.24 825.1V817.8ZM1347.24 785.5H1371.04V794.1H1347.24V785.5ZM1326.24 768.7C1339.94 768.7 1350.04 777.4 1350.04 789.9C1350.04 802.5 1339.94 811.2 1326.24 811.2C1312.54 811.2 1302.44 802.5 1302.44 789.9C1302.44 777.4 1312.54 768.7 1326.24 768.7ZM1326.24 777.3C1318.24 777.3 1312.44 782.3 1312.44 789.9C1312.44 797.5 1318.24 802.6 1326.24 802.6C1334.24 802.6 1339.94 797.5 1339.94 789.9C1339.94 782.3 1334.24 777.3 1326.24 777.3ZM1366.44 764.9H1376.94V813.3H1366.44V764.9ZM1461.23 800.5H1477.73V809.2H1461.23V800.5ZM1453.53 764.8H1464.03V856.2H1453.53V764.8ZM1396.43 773.7H1406.83V830.4H1396.43V773.7ZM1396.43 824.7H1403.93C1417.23 824.7 1431.23 823.8 1446.13 820.8L1447.33 829.4C1431.93 832.6 1417.63 833.5 1403.93 833.5H1396.43V824.7ZM1495.53 849.4C1491.13 849.4 1487.83 846 1487.83 841.3C1487.83 836.5 1491.13 833.2 1495.53 833.2C1499.83 833.2 1503.23 836.5 1503.23 841.3C1503.23 846 1499.83 849.4 1495.53 849.4ZM1525.31 849.4C1520.91 849.4 1517.61 846 1517.61 841.3C1517.61 836.5 1520.91 833.2 1525.31 833.2C1529.61 833.2 1533.01 836.5 1533.01 841.3C1533.01 846 1529.61 849.4 1525.31 849.4ZM1537.21 802.4L1534.31 797.2C1540.31 793.5 1543.31 789.5 1543.31 782.9L1542.21 774.8L1547.21 781C1545.71 782.4 1544.21 783.2 1542.31 783.2C1538.71 783.2 1535.51 780.8 1535.51 776.6C1535.51 772.2 1538.31 769.6 1542.31 769.6C1547.61 769.6 1550.51 773.8 1550.51 781.1C1550.51 790.6 1546.01 797.6 1537.21 802.4ZM1559.21 802.4L1556.21 797.2C1562.31 793.5 1565.31 789.5 1565.31 782.9L1564.21 774.8L1569.21 781C1567.81 782.4 1566.21 783.2 1564.31 783.2C1560.61 783.2 1557.51 780.8 1557.51 776.6C1557.51 772.2 1560.41 769.6 1564.31 769.6C1569.51 769.6 1572.51 773.8 1572.51 781.1C1572.51 790.6 1567.91 797.6 1559.21 802.4Z" fill="#6093FF" fill-opacity="0.26"/>
<path d="M-511.5 607C-516.8 607 -519.8 602.8 -519.8 595.4C-519.8 585.9 -515.2 579 -506.5 574.2L-503.5 579.5C-509.6 583.1 -512.6 587.1 -512.6 593.7L-511.5 601.9L-516.5 595.5C-515 594.2 -513.5 593.4 -511.5 593.4C-507.9 593.4 -504.8 595.8 -504.8 599.9C-504.8 604.3 -507.6 607 -511.5 607ZM-489.6 607C-494.8 607 -497.8 602.8 -497.8 595.4C-497.8 585.9 -493.2 579 -484.5 574.2L-481.6 579.5C-487.6 583.1 -490.5 587.1 -490.5 593.7L-489.6 601.9L-494.5 595.5C-493 594.2 -491.5 593.4 -489.6 593.4C-486 593.4 -482.8 595.8 -482.8 599.9C-482.8 604.3 -485.6 607 -489.6 607ZM-433.742 601.5H-423.342V618.2H-433.742V601.5ZM-469.742 613.6H-387.142V622H-469.742V613.6ZM-428.542 628.4C-408.842 628.4 -397.042 634.1 -397.042 644.3C-397.042 654.5 -408.842 660.2 -428.542 660.2C-448.242 660.2 -460.042 654.5 -460.042 644.3C-460.042 634.1 -448.242 628.4 -428.542 628.4ZM-428.542 636.4C-442.042 636.4 -449.442 639.1 -449.442 644.3C-449.442 649.6 -442.042 652.3 -428.542 652.3C-415.042 652.3 -407.642 649.6 -407.642 644.3C-407.642 639.1 -415.042 636.4 -428.542 636.4ZM-435.442 576.9H-426.142V579.4C-426.142 593.7 -440.942 604.1 -461.942 606.4L-465.642 598.1C-447.642 596.4 -435.442 588.3 -435.442 579.4V576.9ZM-430.642 576.9H-421.442V579.4C-421.442 588.3 -409.242 596.4 -391.142 598.1L-394.842 606.4C-415.842 604.1 -430.642 593.7 -430.642 579.4V576.9ZM-462.142 572.9H-394.542V581.3H-462.142V572.9ZM-312.95 568.8H-302.45V660.4H-312.95V568.8ZM-351.15 575.6C-337.45 575.6 -327.55 588.1 -327.55 607.8C-327.55 627.5 -337.45 640.1 -351.15 640.1C-364.75 640.1 -374.65 627.5 -374.65 607.8C-374.65 588.1 -364.75 575.6 -351.15 575.6ZM-351.15 585.1C-359.15 585.1 -364.65 593.6 -364.65 607.8C-364.65 622.1 -359.15 630.7 -351.15 630.7C-343.15 630.7 -337.65 622.1 -337.65 607.8C-337.65 593.6 -343.15 585.1 -351.15 585.1ZM-198.297 568.9H-187.697V616H-198.297V568.9ZM-248.297 620.1H-187.697V643.3H-237.797V655.8H-248.097V635.6H-198.097V628.3H-248.297V620.1ZM-248.097 651.2H-184.797V659.5H-248.097V651.2ZM-259.197 574.8H-210.097V583H-259.197V574.8ZM-260.597 613.6L-261.697 605.1C-245.497 605.1 -223.897 604.8 -206.197 602.6L-205.597 610.1C-223.697 613 -244.697 613.5 -260.597 613.6ZM-250.997 578.5H-240.997V609.1H-250.997V578.5ZM-228.497 578.5H-218.297V609.1H-228.497V578.5ZM-103.305 568.9H-93.3047V660.3H-103.305V568.9ZM-135.205 601H-118.705V609.6H-135.205V601ZM-121.705 570.7H-111.905V655.8H-121.705V570.7ZM-153.705 583.4H-145.705V594C-145.705 614.2 -152.505 633.8 -166.405 642.6L-172.705 634.8C-159.705 626.8 -153.705 610.3 -153.705 594V583.4ZM-151.405 583.4H-143.505V594C-143.505 609.6 -137.705 625.2 -124.905 632.7L-131.105 640.4C-145.005 632.1 -151.405 613.6 -151.405 594V583.4ZM-169.805 578.9H-128.505V587.4H-169.805V578.9ZM-11.3125 568.9H-1.3125V660.3H-11.3125V568.9ZM-43.2125 601H-26.7125V609.6H-43.2125V601ZM-29.7125 570.7H-19.9125V655.8H-29.7125V570.7ZM-61.7125 583.4H-53.7125V594C-53.7125 614.2 -60.5125 633.8 -74.4125 642.6L-80.7125 634.8C-67.7125 626.8 -61.7125 610.3 -61.7125 594V583.4ZM-59.4125 583.4H-51.5125V594C-51.5125 609.6 -45.7125 625.2 -32.9125 632.7L-39.1125 640.4C-53.0125 632.1 -59.4125 613.6 -59.4125 594V583.4ZM-77.8125 578.9H-36.5125V587.4H-77.8125V578.9ZM15.9797 572.8H26.3797V584.9H48.6797V572.8H58.9797V612.7H15.9797V572.8ZM26.3797 592.9V604.4H48.6797V592.9H26.3797ZM73.5797 568.9H84.0797V615.7H73.5797V568.9ZM79.6797 587.6H96.8797V596.2H79.6797V587.6ZM25.0797 619.7H84.0797V643.1H35.5797V655.5H25.1797V635.5H73.7797V627.9H25.0797V619.7ZM25.1797 651.2H87.0797V659.5H25.1797V651.2ZM104.872 599.3H187.272V607.8H104.872V599.3ZM125.372 605.6H135.872V646.3H125.372V605.6ZM155.772 605.6H166.272V646.3H155.772V605.6ZM202.364 606.4L199.464 601.2C205.464 597.5 208.464 593.5 208.464 586.9L207.364 578.8L212.364 585C210.864 586.4 209.364 587.2 207.464 587.2C203.864 587.2 200.664 584.8 200.664 580.6C200.664 576.2 203.464 573.6 207.464 573.6C212.764 573.6 215.664 577.8 215.664 585.1C215.664 594.6 211.164 601.6 202.364 606.4ZM224.364 606.4L221.364 601.2C227.464 597.5 230.464 593.5 230.464 586.9L229.364 578.8L234.364 585C232.964 586.4 231.364 587.2 229.464 587.2C225.764 587.2 222.664 584.8 222.664 580.6C222.664 576.2 225.564 573.6 229.464 573.6C234.664 573.6 237.664 577.8 237.664 585.1C237.664 594.6 233.064 601.6 224.364 606.4Z" fill="#6093FF" fill-opacity="0.26"/>
<path d="M882.5 213C877.2 213 874.2 208.8 874.2 201.4C874.2 191.9 878.8 185 887.5 180.2L890.5 185.5C884.4 189.1 881.4 193.1 881.4 199.7L882.5 207.9L877.5 201.5C879 200.2 880.5 199.4 882.5 199.4C886.1 199.4 889.2 201.8 889.2 205.9C889.2 210.3 886.4 213 882.5 213ZM904.4 213C899.2 213 896.2 208.8 896.2 201.4C896.2 191.9 900.8 185 909.5 180.2L912.4 185.5C906.4 189.1 903.5 193.1 903.5 199.7L904.4 207.9L899.5 201.5C901 200.2 902.5 199.4 904.4 199.4C908 199.4 911.2 201.8 911.2 205.9C911.2 210.3 908.4 213 904.4 213ZM948.658 181.6C962.258 181.6 972.058 194.1 972.058 213.8C972.058 233.5 962.258 246.1 948.658 246.1C935.058 246.1 925.258 233.5 925.258 213.8C925.258 194.1 935.058 181.6 948.658 181.6ZM948.658 191.1C940.758 191.1 935.258 199.6 935.258 213.8C935.258 228.1 940.758 236.7 948.658 236.7C956.558 236.7 962.058 228.1 962.058 213.8C962.058 199.6 956.558 191.1 948.658 191.1ZM984.658 174.9H995.158V266.3H984.658V174.9ZM992.758 210.5H1009.36V219.2H992.758V210.5ZM1025.05 234.6L1023.35 194.6L1023.05 182.6H1034.65L1034.35 194.6L1032.75 234.6H1025.05ZM1028.85 259.4C1024.55 259.4 1021.15 256 1021.15 251.3C1021.15 246.5 1024.55 243.2 1028.85 243.2C1033.25 243.2 1036.55 246.5 1036.55 251.3C1036.55 256 1033.25 259.4 1028.85 259.4ZM1076.29 183.8H1118.99V243.5H1076.29V183.8ZM1108.69 192.1H1086.59V235.2H1108.69V192.1ZM1133.39 174.9H1143.89V266.3H1133.39V174.9ZM1141.49 210.5H1158.09V219.2H1141.49V210.5ZM1164.98 226.7H1247.78V235.2H1164.98V226.7ZM1200.88 232.1H1211.28V266.3H1200.88V232.1ZM1206.18 178.3C1225.48 178.3 1238.58 186.2 1238.58 198.6C1238.58 210.9 1225.48 218.8 1206.18 218.8C1186.98 218.8 1173.78 210.9 1173.78 198.6C1173.78 186.2 1186.98 178.3 1206.18 178.3ZM1206.18 186.7C1193.08 186.7 1184.48 191.2 1184.48 198.6C1184.48 206 1193.08 210.4 1206.18 210.4C1219.28 210.4 1227.88 206 1227.88 198.6C1227.88 191.2 1219.28 186.7 1206.18 186.7ZM1292.47 180.7H1301.57V187.6C1301.57 207.4 1284.97 223.8 1264.37 228.2L1259.77 219.5C1277.87 216.2 1292.47 202 1292.47 187.6V180.7ZM1294.47 180.7H1303.57V187.6C1303.57 202.2 1318.17 216.2 1336.27 219.5L1331.67 228.2C1311.07 223.8 1294.47 207.6 1294.47 187.6V180.7ZM1257.07 245.9H1339.87V254.5H1257.07V245.9ZM1354.66 212.4L1351.76 207.2C1357.76 203.5 1360.76 199.5 1360.76 192.9L1359.66 184.8L1364.66 191C1363.16 192.4 1361.66 193.2 1359.76 193.2C1356.16 193.2 1352.96 190.8 1352.96 186.6C1352.96 182.2 1355.76 179.6 1359.76 179.6C1365.06 179.6 1367.96 183.8 1367.96 191.1C1367.96 200.6 1363.46 207.6 1354.66 212.4ZM1376.66 212.4L1373.66 207.2C1379.76 203.5 1382.76 199.5 1382.76 192.9L1381.66 184.8L1386.66 191C1385.26 192.4 1383.66 193.2 1381.76 193.2C1378.06 193.2 1374.96 190.8 1374.96 186.6C1374.96 182.2 1377.86 179.6 1381.76 179.6C1386.96 179.6 1389.96 183.8 1389.96 191.1C1389.96 200.6 1385.36 207.6 1376.66 212.4Z" fill="#6093FF" fill-opacity="0.26"/>
<path d="M1088.5 412C1083.2 412 1080.2 407.8 1080.2 400.4C1080.2 390.9 1084.8 384 1093.5 379.2L1096.5 384.5C1090.4 388.1 1087.4 392.1 1087.4 398.7L1088.5 406.9L1083.5 400.5C1085 399.2 1086.5 398.4 1088.5 398.4C1092.1 398.4 1095.2 400.8 1095.2 404.9C1095.2 409.3 1092.4 412 1088.5 412ZM1110.4 412C1105.2 412 1102.2 407.8 1102.2 400.4C1102.2 390.9 1106.8 384 1115.5 379.2L1118.4 384.5C1112.4 388.1 1109.5 392.1 1109.5 398.7L1110.4 406.9L1105.5 400.5C1107 399.2 1108.5 398.4 1110.4 398.4C1114 398.4 1117.2 400.8 1117.2 404.9C1117.2 409.3 1114.4 412 1110.4 412ZM1166.36 425.4H1176.76V447.3H1166.36V425.4ZM1171.56 379.3C1190.96 379.3 1205.16 389 1205.16 403.8C1205.16 418.7 1190.96 428.3 1171.56 428.3C1152.26 428.3 1137.96 418.7 1137.96 403.8C1137.96 389 1152.26 379.3 1171.56 379.3ZM1171.56 387.6C1157.96 387.6 1148.16 393.9 1148.16 403.8C1148.16 413.8 1157.96 420 1171.56 420C1185.26 420 1194.96 413.8 1194.96 403.8C1194.96 393.9 1185.26 387.6 1171.56 387.6ZM1130.36 445.5H1213.16V454.1H1130.36V445.5ZM1233.05 394.1H1295.45V402.5H1233.05V394.1ZM1222.25 410.1H1305.05V418.5H1222.25V410.1ZM1233.05 375.1H1243.35V398.3H1233.05V375.1ZM1232.15 425.5H1294.85V448.2H1242.75V458.3H1232.25V440.6H1284.45V433.5H1232.15V425.5ZM1232.25 456.1H1297.75V464.2H1232.25V456.1ZM1377.6 431.2C1397.2 431.2 1409.7 437.6 1409.7 448.3C1409.7 458.8 1397.2 465.2 1377.6 465.2C1358.1 465.2 1345.6 458.8 1345.6 448.3C1345.6 437.6 1358.1 431.2 1377.6 431.2ZM1377.6 439.2C1364.2 439.2 1356 442.5 1356 448.3C1356 453.9 1364.2 457.2 1377.6 457.2C1391.1 457.2 1399.3 453.9 1399.3 448.3C1399.3 442.5 1391.1 439.2 1377.6 439.2ZM1346.4 378.3H1404.8V386.6H1346.4V378.3ZM1336.9 415.7H1419.2V424H1336.9V415.7ZM1369.2 398.8H1379.6V417.9H1369.2V398.8ZM1398.7 378.3H1409.1V385.9C1409.1 393.2 1409.1 400.8 1406.6 410.2L1396.2 409.1C1398.7 399.7 1398.7 393 1398.7 385.9V378.3ZM1428.9 382.8H1482.7V391.2H1428.9V382.8ZM1455.8 395.1C1468.9 395.1 1477.9 401.7 1477.9 411.8C1477.9 421.8 1468.9 428.3 1455.8 428.3C1442.7 428.3 1433.6 421.8 1433.6 411.8C1433.6 401.7 1442.7 395.1 1455.8 395.1ZM1455.8 403.1C1448.6 403.1 1443.7 406.3 1443.7 411.8C1443.7 417.1 1448.6 420.4 1455.8 420.4C1463 420.4 1467.9 417.1 1467.9 411.8C1467.9 406.3 1463 403.1 1455.8 403.1ZM1489.6 373.9H1500.1V431.1H1489.6V373.9ZM1497.2 398.4H1513V407H1497.2V398.4ZM1440 435.6H1500.1V465.3H1489.6V444H1440V435.6ZM1450.6 373.4H1461V387.6H1450.6V373.4ZM1540.29 404.7H1550.69V421.7H1540.29V404.7ZM1573.19 404.7H1583.59V421.7H1573.19V404.7ZM1520.69 418.3H1603.29V426.6H1520.69V418.3ZM1561.89 432.5C1581.49 432.5 1593.39 438.4 1593.39 448.8C1593.39 459.3 1581.49 465.2 1561.89 465.2C1542.19 465.2 1530.39 459.3 1530.39 448.8C1530.39 438.4 1542.19 432.5 1561.89 432.5ZM1561.89 440.5C1548.49 440.5 1540.99 443.4 1540.99 448.8C1540.99 454.3 1548.49 457.2 1561.89 457.2C1575.29 457.2 1582.79 454.3 1582.79 448.8C1582.79 443.4 1575.29 440.5 1561.89 440.5ZM1561.99 375.4C1581.99 375.4 1594.59 381.9 1594.59 392.7C1594.59 403.5 1581.99 409.8 1561.99 409.8C1541.99 409.8 1529.49 403.5 1529.49 392.7C1529.49 381.9 1541.99 375.4 1561.99 375.4ZM1561.99 383.5C1548.39 383.5 1540.29 386.7 1540.29 392.7C1540.29 398.6 1548.39 401.8 1561.99 401.8C1575.69 401.8 1583.79 398.6 1583.79 392.7C1583.79 386.7 1575.69 383.5 1561.99 383.5ZM1670.54 398.7H1690.04V407.1H1670.54V398.7ZM1669.94 421.6H1689.74V430H1669.94V421.6ZM1703.24 373.9H1713.34V465.3H1703.24V373.9ZM1684.74 376.1H1694.54V460.9H1684.74V376.1ZM1664.24 385.1H1674.34C1674.34 409.9 1665.54 431.1 1640.54 445.9L1634.54 438.5C1655.64 425.8 1664.24 408.9 1664.24 387.1V385.1ZM1639.14 385.1H1668.04V393.6H1639.14V385.1ZM1748.73 379.5H1757.43V390.1C1757.43 408.1 1748.23 423 1731.93 428.9L1726.33 420.7C1740.93 415.7 1748.73 403.5 1748.73 390.1V379.5ZM1750.73 379.5H1759.23V390.3C1759.23 402.3 1767.13 413.9 1781.03 418.7L1775.73 426.9C1759.83 421.4 1750.73 406.9 1750.73 390.3V379.5ZM1788.03 373.9H1798.53V441.1H1788.03V373.9ZM1795.43 401.2H1811.43V409.9H1795.43V401.2ZM1740.83 455H1802.23V463.5H1740.83V455ZM1740.83 434.7H1751.43V459.3H1740.83V434.7ZM1884.13 373.9H1894.63V465.3H1884.13V373.9ZM1857.33 383.6H1867.63C1867.63 410.7 1856.83 433.7 1825.43 449L1819.93 440.6C1846.23 427.9 1857.33 409.8 1857.33 385.4V383.6ZM1824.43 383.6H1862.03V392H1824.43V383.6ZM1998.58 373.9H2009.18V421H1998.58V373.9ZM1948.58 425.1H2009.18V448.3H1959.08V460.8H1948.78V440.6H1998.78V433.3H1948.58V425.1ZM1948.78 456.2H2012.08V464.5H1948.78V456.2ZM1937.68 379.8H1986.78V388H1937.68V379.8ZM1936.28 418.6L1935.18 410.1C1951.38 410.1 1972.98 409.8 1990.68 407.6L1991.28 415.1C1973.18 418 1952.18 418.5 1936.28 418.6ZM1945.88 383.5H1955.88V414.1H1945.88V383.5ZM1968.38 383.5H1978.58V414.1H1968.38V383.5ZM2044.97 420.7H2055.37V447.2H2044.97V420.7ZM2078.47 420.7H2088.97V447.2H2078.47V420.7ZM2025.67 445.5H2108.47V454.1H2025.67V445.5ZM2066.87 379.1C2086.37 379.1 2100.47 388.5 2100.47 403.1C2100.47 417.6 2086.37 427 2066.87 427C2047.37 427 2033.27 417.6 2033.27 403.1C2033.27 388.5 2047.37 379.1 2066.87 379.1ZM2066.87 387.3C2053.07 387.3 2043.47 393.4 2043.47 403.1C2043.47 412.7 2053.07 418.8 2066.87 418.8C2080.67 418.8 2090.27 412.7 2090.27 403.1C2090.27 393.4 2080.67 387.3 2066.87 387.3ZM2117.46 388.7H2162.06V397.1H2117.46V388.7ZM2139.86 402.3C2151.36 402.3 2159.66 411.1 2159.66 423.6C2159.66 436.1 2151.36 444.8 2139.86 444.8C2128.46 444.8 2120.06 436.1 2120.06 423.6C2120.06 411.1 2128.46 402.3 2139.86 402.3ZM2139.86 411.1C2133.76 411.1 2129.36 416.1 2129.36 423.6C2129.36 431.2 2133.76 436 2139.86 436C2145.96 436 2150.36 431.2 2150.36 423.6C2150.36 416.1 2145.96 411.1 2139.86 411.1ZM2185.46 373.9H2195.46V465.3H2185.46V373.9ZM2172.46 411.8H2188.76V420.3H2172.46V411.8ZM2166.06 375.8H2175.86V461.1H2166.06V375.8ZM2134.76 376.5H2145.06V393.9H2134.76V376.5ZM2222.75 433.6C2220.35 416.7 2237.85 410.3 2237.85 399.5C2237.85 393.9 2234.35 389.8 2228.05 389.8C2223.35 389.8 2219.25 392.1 2215.85 395.9L2209.35 389.9C2214.25 384.3 2220.95 380.3 2229.35 380.3C2241.05 380.3 2249.05 386.9 2249.05 398.7C2249.05 413.2 2231.25 418.6 2232.95 433.6H2222.75ZM2228.05 458.4C2223.65 458.4 2220.35 455 2220.35 450.3C2220.35 445.5 2223.65 442.2 2228.05 442.2C2232.35 442.2 2235.75 445.5 2235.75 450.3C2235.75 455 2232.35 458.4 2228.05 458.4ZM2271.97 433.6C2269.57 416.7 2287.07 410.3 2287.07 399.5C2287.07 393.9 2283.57 389.8 2277.27 389.8C2272.57 389.8 2268.47 392.1 2265.07 395.9L2258.57 389.9C2263.47 384.3 2270.17 380.3 2278.57 380.3C2290.27 380.3 2298.27 386.9 2298.27 398.7C2298.27 413.2 2280.47 418.6 2282.17 433.6H2271.97ZM2277.27 458.4C2272.87 458.4 2269.57 455 2269.57 450.3C2269.57 445.5 2272.87 442.2 2277.27 442.2C2281.57 442.2 2284.97 445.5 2284.97 450.3C2284.97 455 2281.57 458.4 2277.27 458.4ZM2310.47 411.4L2307.57 406.2C2313.57 402.5 2316.57 398.5 2316.57 391.9L2315.47 383.8L2320.47 390C2318.97 391.4 2317.47 392.2 2315.57 392.2C2311.97 392.2 2308.77 389.8 2308.77 385.6C2308.77 381.2 2311.57 378.6 2315.57 378.6C2320.87 378.6 2323.77 382.8 2323.77 390.1C2323.77 399.6 2319.27 406.6 2310.47 411.4ZM2332.47 411.4L2329.47 406.2C2335.57 402.5 2338.57 398.5 2338.57 391.9L2337.47 383.8L2342.47 390C2341.07 391.4 2339.47 392.2 2337.57 392.2C2333.87 392.2 2330.77 389.8 2330.77 385.6C2330.77 381.2 2333.67 378.6 2337.57 378.6C2342.77 378.6 2345.77 382.8 2345.77 390.1C2345.77 399.6 2341.17 406.6 2332.47 411.4Z" fill="#6093FF" fill-opacity="0.26"/>
<path d="M40.5 412C35.2 412 32.2 407.8 32.2 400.4C32.2 390.9 36.8 384 45.5 379.2L48.5 384.5C42.4 388.1 39.4 392.1 39.4 398.7L40.5 406.9L35.5 400.5C37 399.2 38.5 398.4 40.5 398.4C44.1 398.4 47.2 400.8 47.2 404.9C47.2 409.3 44.4 412 40.5 412ZM62.4 412C57.2 412 54.2 407.8 54.2 400.4C54.2 390.9 58.8 384 67.5 379.2L70.4 384.5C64.4 388.1 61.5 392.1 61.5 398.7L62.4 406.9L57.5 400.5C59 399.2 60.5 398.4 62.4 398.4C66 398.4 69.2 400.8 69.2 404.9C69.2 409.3 66.4 412 62.4 412ZM100.158 391.2H108.058V394.1C108.058 408.8 101.358 422 87.5578 427.5L82.6578 419.7C94.1578 415.2 100.158 404.9 100.158 394.1V391.2ZM102.258 391.2H110.058V394.1C110.058 404.2 116.158 413.9 127.558 418.1L122.858 425.9C108.958 420.8 102.258 408.1 102.258 394.1V391.2ZM84.7578 385.2H125.158V393.5H84.7578V385.2ZM100.158 374.9H110.058V388.8H100.158V374.9ZM149.758 374H159.658V430H149.758V374ZM136.658 397.6H152.658V406.1H136.658V397.6ZM130.458 375.5H140.258V429.5H130.458V375.5ZM97.7578 434.4H159.658V465.3H149.258V442.8H97.7578V434.4ZM207.011 427.5H216.811V437.8H229.711V427.5H239.411V464.2H207.011V427.5ZM216.811 445.5V456.2H229.711V445.5H216.811ZM255.511 426.8H263.511V434.1C263.511 446.9 257.611 459.7 244.611 465L239.411 457.1C250.411 452.6 255.511 443.1 255.511 434.1V426.8ZM257.811 426.8H265.911V434.1C265.911 443.7 270.911 453.1 282.011 457.1L276.711 465C263.511 459.9 257.811 447.7 257.811 434.1V426.8ZM242.811 394.5H266.611V403.1H242.811V394.5ZM221.811 377.7C235.511 377.7 245.611 386.4 245.611 398.9C245.611 411.5 235.511 420.2 221.811 420.2C208.111 420.2 198.011 411.5 198.011 398.9C198.011 386.4 208.111 377.7 221.811 377.7ZM221.811 386.3C213.811 386.3 208.011 391.3 208.011 398.9C208.011 406.5 213.811 411.6 221.811 411.6C229.811 411.6 235.511 406.5 235.511 398.9C235.511 391.3 229.811 386.3 221.811 386.3ZM262.011 373.9H272.511V422.3H262.011V373.9ZM330.003 379.2C349.103 379.2 363.603 389.4 363.603 404.9C363.603 420.5 349.103 430.7 330.003 430.7C311.003 430.7 296.403 420.5 296.403 404.9C296.403 389.4 311.003 379.2 330.003 379.2ZM330.003 387.7C316.503 387.7 306.603 394.4 306.603 404.9C306.603 415.3 316.503 422.1 330.003 422.1C343.603 422.1 353.503 415.3 353.503 404.9C353.503 394.4 343.603 387.7 330.003 387.7ZM288.803 445H371.603V453.7H288.803V445ZM424.695 389.2H449.095V397.7H424.695V389.2ZM424.695 408.8H449.395V417.3H424.695V408.8ZM384.695 381.6H427.095V425.2H384.695V381.6ZM416.795 389.9H394.995V416.9H416.795V389.9ZM445.995 374H456.495V440.6H445.995V374ZM396.995 455H458.595V463.5H396.995V455ZM396.995 434.5H407.495V459.2H396.995V434.5ZM556.048 373.9H566.548V425.3H556.048V373.9ZM563.648 395.1H579.448V403.7H563.648V395.1ZM530.348 379.5H541.448C541.448 403.1 525.848 419.6 498.848 426.8L494.748 418.5C517.848 412.4 530.348 399.9 530.348 384.5V379.5ZM498.848 379.5H536.448V387.9H498.848V379.5ZM508.248 429.3H566.548V464.2H508.248V429.3ZM556.248 437.7H518.548V455.8H556.248V437.7ZM636.241 395.9H655.241V404.5H636.241V395.9ZM652.441 373.9H662.941V427.1H652.441V373.9ZM602.941 431.2H662.941V464.2H602.941V431.2ZM652.641 439.5H613.241V455.8H652.641V439.5ZM609.541 382.5H618.041V389.2C618.041 406.1 608.741 421 592.441 426.7L587.141 418.4C601.341 413.5 609.541 401.5 609.541 389.2V382.5ZM611.641 382.5H620.041V389.1C620.041 400.4 627.841 411.7 641.541 416.5L636.341 424.8C620.541 419.3 611.641 404.9 611.641 389.1V382.5ZM590.141 379.2H639.141V387.6H590.141V379.2ZM744.033 374H754.533V440.2H744.033V374ZM694.833 455H757.133V463.5H694.833V455ZM694.833 433.5H705.333V458.2H694.833V433.5ZM705.233 380.1C719.033 380.1 729.433 389.5 729.433 402.9C729.433 416.1 719.033 425.7 705.233 425.7C691.433 425.7 680.933 416.1 680.933 402.9C680.933 389.5 691.433 380.1 705.233 380.1ZM705.233 389.1C697.233 389.1 691.133 394.5 691.133 402.9C691.133 411.1 697.233 416.5 705.233 416.5C713.233 416.5 719.233 411.1 719.233 402.9C719.233 394.5 713.233 389.1 705.233 389.1ZM839.125 373.9H849.125V465.3H839.125V373.9ZM802.625 408.1H824.825V416.6H802.625V408.1ZM820.525 375.8H830.325V460.9H820.525V375.8ZM774.225 435.4H780.325C793.925 435.4 802.525 435 812.625 432.9L813.525 441.5C803.225 443.7 794.325 444.1 780.325 444.1H774.225V435.4ZM774.225 384.7H808.825V393.1H784.525V438.9H774.225V384.7ZM873.517 458.4C869.117 458.4 865.817 455 865.817 450.3C865.817 445.5 869.117 442.2 873.517 442.2C877.817 442.2 881.217 445.5 881.217 450.3C881.217 455 877.817 458.4 873.517 458.4ZM903.302 458.4C898.902 458.4 895.602 455 895.602 450.3C895.602 445.5 898.902 442.2 903.302 442.2C907.602 442.2 911.002 445.5 911.002 450.3C911.002 455 907.602 458.4 903.302 458.4ZM933.088 458.4C928.688 458.4 925.388 455 925.388 450.3C925.388 445.5 928.688 442.2 933.088 442.2C937.388 442.2 940.788 445.5 940.788 450.3C940.788 455 937.388 458.4 933.088 458.4ZM944.989 411.4L942.089 406.2C948.089 402.5 951.089 398.5 951.089 391.9L949.989 383.8L954.989 390C953.489 391.4 951.989 392.2 950.089 392.2C946.489 392.2 943.289 389.8 943.289 385.6C943.289 381.2 946.089 378.6 950.089 378.6C955.389 378.6 958.289 382.8 958.289 390.1C958.289 399.6 953.789 406.6 944.989 411.4ZM966.989 411.4L963.989 406.2C970.089 402.5 973.089 398.5 973.089 391.9L971.989 383.8L976.989 390C975.589 391.4 973.989 392.2 972.089 392.2C968.389 392.2 965.289 389.8 965.289 385.6C965.289 381.2 968.189 378.6 972.089 378.6C977.289 378.6 980.289 382.8 980.289 390.1C980.289 399.6 975.689 406.6 966.989 411.4Z" fill="#6093FF" fill-opacity="0.26"/>
<path d="M1645.5 799C1640.2 799 1637.2 794.8 1637.2 787.4C1637.2 777.9 1641.8 771 1650.5 766.2L1653.5 771.5C1647.4 775.1 1644.4 779.1 1644.4 785.7L1645.5 793.9L1640.5 787.5C1642 786.2 1643.5 785.4 1645.5 785.4C1649.1 785.4 1652.2 787.8 1652.2 791.9C1652.2 796.3 1649.4 799 1645.5 799ZM1667.4 799C1662.2 799 1659.2 794.8 1659.2 787.4C1659.2 777.9 1663.8 771 1672.5 766.2L1675.4 771.5C1669.4 775.1 1666.5 779.1 1666.5 785.7L1667.4 793.9L1662.5 787.5C1664 786.2 1665.5 785.4 1667.4 785.4C1671 785.4 1674.2 787.8 1674.2 791.9C1674.2 796.3 1671.4 799 1667.4 799ZM1710.56 774.6H1718.96V787.4C1718.96 807.5 1708.66 827.4 1692.96 834.9L1686.96 826.6C1701.06 820.1 1710.56 803 1710.56 787.4V774.6ZM1712.76 774.6H1721.06V787.4C1721.06 802.5 1730.46 818.3 1744.76 824.3L1738.96 832.6C1723.06 825.5 1712.76 807 1712.76 787.4V774.6ZM1690.26 770H1741.36V778.7H1690.26V770ZM1752.06 760.9H1762.56V852.3H1752.06V760.9ZM1789.65 765.4H1848.05V773.8H1789.65V765.4ZM1779.35 798.7H1862.15V807.1H1779.35V798.7ZM1841.55 765.4H1851.85V772.4C1851.85 780.2 1851.85 788.9 1848.95 801.2L1838.55 800.9C1841.55 788.7 1841.55 780.1 1841.55 772.4V765.4ZM1789.25 818.3H1851.85V851.2H1789.25V818.3ZM1841.55 826.5H1799.55V842.8H1841.55V826.5ZM1958.7 760.9H1969.3V808H1958.7V760.9ZM1908.7 812.1H1969.3V835.3H1919.2V847.8H1908.9V827.6H1958.9V820.3H1908.7V812.1ZM1908.9 843.2H1972.2V851.5H1908.9V843.2ZM1897.8 766.8H1946.9V775H1897.8V766.8ZM1896.4 805.6L1895.3 797.1C1911.5 797.1 1933.1 796.8 1950.8 794.6L1951.4 802.1C1933.3 805 1912.3 805.5 1896.4 805.6ZM1906 770.5H1916V801.1H1906V770.5ZM1928.5 770.5H1938.7V801.1H1928.5V770.5ZM2005.1 807.7H2015.5V834.2H2005.1V807.7ZM2038.6 807.7H2049.1V834.2H2038.6V807.7ZM1985.8 832.5H2068.6V841.1H1985.8V832.5ZM2027 766.1C2046.5 766.1 2060.6 775.5 2060.6 790.1C2060.6 804.6 2046.5 814 2027 814C2007.5 814 1993.4 804.6 1993.4 790.1C1993.4 775.5 2007.5 766.1 2027 766.1ZM2027 774.3C2013.2 774.3 2003.6 780.4 2003.6 790.1C2003.6 799.7 2013.2 805.8 2027 805.8C2040.8 805.8 2050.4 799.7 2050.4 790.1C2050.4 780.4 2040.8 774.3 2027 774.3ZM2083.39 798.4L2080.49 793.2C2086.49 789.5 2089.49 785.5 2089.49 778.9L2088.39 770.8L2093.39 777C2091.89 778.4 2090.39 779.2 2088.49 779.2C2084.89 779.2 2081.69 776.8 2081.69 772.6C2081.69 768.2 2084.49 765.6 2088.49 765.6C2093.79 765.6 2096.69 769.8 2096.69 777.1C2096.69 786.6 2092.19 793.6 2083.39 798.4ZM2105.39 798.4L2102.39 793.2C2108.49 789.5 2111.49 785.5 2111.49 778.9L2110.39 770.8L2115.39 777C2113.99 778.4 2112.39 779.2 2110.49 779.2C2106.79 779.2 2103.69 776.8 2103.69 772.6C2103.69 768.2 2106.59 765.6 2110.49 765.6C2115.69 765.6 2118.69 769.8 2118.69 777.1C2118.69 786.6 2114.09 793.6 2105.39 798.4Z" fill="#6093FF" fill-opacity="0.26"/>
<rect x="508" y="442" width="957" height="195" rx="97.5" fill="#6093FF"/>
<path d="M658.093 528.59H716.413V538.13H658.093V528.59ZM648.823 547.58H724.243V557.21H648.823V547.58ZM680.143 553.34H692.113V586.01H680.143V553.34ZM658.093 506.36H670.063V533.09H658.093V506.36ZM784.806 502.58H796.866V585.92H784.806V502.58ZM793.716 534.44H808.386V544.25H793.716V534.44ZM762.936 511.22H774.636C774.636 536.24 765.096 557.66 737.376 571.61L730.716 562.52C752.586 551.18 762.936 535.88 762.936 513.29V511.22ZM735.306 511.22H769.056V520.85H735.306V511.22ZM843.749 509.78H854.369V511.85C854.369 524.36 843.119 534.53 821.609 536.6L817.469 527.15C835.739 525.62 843.749 518.33 843.749 511.85V509.78ZM849.599 509.78H860.219V511.85C860.219 518.33 868.139 525.62 886.499 527.15L882.359 536.6C860.939 534.53 849.599 524.45 849.599 511.85V509.78ZM821.159 505.37H882.899V514.82H821.159V505.37ZM845.909 531.92H857.789V546.77H845.909V531.92ZM823.049 557.3H880.649V585.11H823.049V557.3ZM868.949 566.66H834.839V575.66H868.949V566.66ZM814.319 541.73H889.649V551.09H814.319V541.73ZM974.742 502.67H986.802V545.42H974.742V502.67ZM931.182 549.02H986.802V571.25H943.062V580.07H931.362V562.79H974.922V558.11H931.182V549.02ZM931.362 576.38H988.872V585.47H931.362V576.38ZM921.732 506.18H933.522V515.63H950.352V506.18H962.232V542.9H921.732V506.18ZM933.522 524.63V533.54H950.352V524.63H933.522ZM1058.08 502.58H1070.05V586.19H1058.08V502.58ZM1044.4 520.31H1060.06V529.94H1044.4V520.31ZM1003.18 557.84H1009.75C1022.08 557.84 1032.34 557.57 1044.31 555.77L1045.3 565.49C1033.06 567.38 1022.44 567.65 1009.75 567.65H1003.18V557.84ZM1003 509.6H1040.26V541.91H1015.06V560H1003.18V532.46H1028.47V519.14H1003V509.6ZM1044.22 542.99H1059.88V552.62H1044.22V542.99ZM1103.7 512.3H1113.51V516.98C1113.51 528.5 1105.5 537.95 1088.85 540.74L1084.26 531.74C1097.76 529.67 1103.7 523.37 1103.7 516.98V512.3ZM1106.31 512.3H1115.94V516.98C1115.94 523.01 1121.88 528.95 1134.66 530.84L1129.89 539.93C1114.05 537.23 1106.31 528.05 1106.31 516.98V512.3ZM1087.68 507.8H1131.87V517.25H1087.68V507.8ZM1103.25 549.65H1115.22V583.49H1103.25V549.65ZM1141.68 502.67H1153.74V586.01H1141.68V502.67ZM1084.26 555.41L1082.82 545.69C1097.85 545.69 1118.55 545.51 1136.37 542.99L1137 551.72C1118.73 555.14 1099.11 555.41 1084.26 555.41ZM1125.03 559.19H1144.11V568.19H1125.03V559.19ZM1165.97 529.76H1241.3V539.39H1165.97V529.76ZM1183.25 537.32H1195.22V573.5H1183.25V537.32ZM1211.51 537.32H1223.48V573.5H1211.51V537.32ZM1248.76 529.76H1324.09V539.39H1248.76V529.76ZM1266.04 537.32H1278.01V573.5H1266.04V537.32ZM1294.3 537.32H1306.27V573.5H1294.3V537.32Z" fill="white"/>
</g>
<defs>
<clipPath id="clip0_839_2545">
<rect width="1920" height="1080" fill="white"/>
</clipPath>
</defs>
</svg>
