<svg width="1920" height="1080" viewBox="0 0 1920 1080" fill="none" xmlns="http://www.w3.org/2000/svg">
<rect width="1920" height="1080" fill="white"/>
<path d="M372.255 388.56C364.575 388.56 360.495 382.68 360.495 372.24C360.495 360 366.495 350.76 378.615 344.52L382.695 352.44C374.775 356.52 370.935 361.68 370.935 369.72L371.775 380.76L365.295 372.12C367.335 370.56 369.615 369.36 372.255 369.36C377.415 369.36 381.735 372.84 381.735 378.48C381.735 384.72 377.775 388.56 372.255 388.56ZM402.135 388.56C394.575 388.56 390.495 382.68 390.495 372.24C390.495 360 396.495 350.76 408.615 344.52L412.575 352.44C404.775 356.52 400.935 361.68 400.935 369.72L401.655 380.76L395.295 372.12C397.335 370.56 399.615 369.36 402.135 369.36C407.295 369.36 411.735 372.84 411.735 378.48C411.735 384.72 407.775 388.56 402.135 388.56ZM503.321 337.56H519.401V394.44H503.321V337.56ZM444.161 398.88H519.401V428.88H460.121V442.32H444.401V417.48H503.561V411.12H444.161V398.88ZM444.401 435.6H522.401V447.96H444.401V435.6ZM431.561 344.28H491.441V356.52H431.561V344.28ZM430.241 392.52L428.681 379.92C448.121 379.92 474.041 379.56 495.521 376.92L496.361 388.32C474.401 391.92 449.441 392.4 430.241 392.52ZM440.321 349.8H455.561V386.16H440.321V349.8ZM467.201 349.8H482.681V386.16H467.201V349.8ZM559.352 393.96H575.192V425.16H559.352V393.96ZM599.672 393.96H615.632V425.16H599.672V393.96ZM537.272 422.88H637.832V435.84H537.272V422.88ZM587.432 342.96C611.312 342.96 628.952 354.72 628.952 372.84C628.952 390.96 611.312 402.6 587.432 402.6C563.432 402.6 545.912 390.96 545.912 372.84C545.912 354.72 563.432 342.96 587.432 342.96ZM587.432 355.44C571.952 355.44 561.632 361.8 561.632 372.84C561.632 383.76 571.952 390.24 587.432 390.24C602.912 390.24 613.232 383.76 613.232 372.84C613.232 361.8 602.912 355.44 587.432 355.44ZM719.062 337.44H735.022V397.44H719.062V337.44ZM728.662 361.2H749.782V374.16H728.662V361.2ZM661.582 401.88H735.022V430.08H677.662V440.16H661.822V419.28H719.302V413.4H661.582V401.88ZM661.822 436.2H738.262V447.96H661.822V436.2ZM647.542 345.72H712.942V357.72H647.542V345.72ZM680.302 360.36C696.742 360.36 707.542 367.44 707.542 378.6C707.542 389.76 696.742 396.6 680.302 396.6C663.742 396.6 652.942 389.76 652.942 378.6C652.942 367.44 663.742 360.36 680.302 360.36ZM680.302 371.52C672.862 371.52 668.302 373.92 668.302 378.6C668.302 383.04 672.862 385.44 680.302 385.44C687.742 385.44 692.302 383.04 692.302 378.6C692.302 373.92 687.742 371.52 680.302 371.52ZM672.262 336.72H688.222V354.24H672.262V336.72ZM844.52 339.24H859.04V443.64H844.52V339.24ZM853.16 380.52H872.72V393.36H853.16V380.52ZM786.92 408.84H791.96C797.24 408.84 803 408.72 810.44 407.04L811.52 420C803.6 421.8 797.72 421.92 791.96 421.92H786.92V408.84ZM786.92 350.76H810.32V363.48H801.44V415.92H786.92V350.76ZM814.52 408.84H819.68C825.92 408.84 832.16 408.72 840.08 406.92L841.16 419.88C832.88 421.8 826.4 421.92 819.68 421.92H814.52V408.84ZM814.52 350.76H838.76V363.48H828.8V415.8H814.52V350.76ZM867.08 337.56H882.08V448.68H867.08V337.56ZM993.738 337.56H1009.82V448.68H993.738V337.56ZM1006.22 378.96H1025.9V392.16H1006.22V378.96ZM926.058 346.32H941.898V373.32H964.218V346.32H980.058V423H926.058V346.32ZM941.898 385.68V410.16H964.218V385.68H941.898ZM1033.21 423.48H1133.77V436.44H1033.21V423.48ZM1075.33 402.48H1091.29V428.76H1075.33V402.48ZM1044.49 344.76H1122.49V381.72H1060.57V400.44H1044.73V369.24H1106.65V357.36H1044.49V344.76ZM1044.73 394.08H1125.01V406.92H1044.73V394.08ZM1246.99 337.56H1263.07V394.56H1246.99V337.56ZM1188.91 399.36H1263.07V429H1204.75V440.76H1189.15V417.72H1247.23V411.48H1188.91V399.36ZM1189.15 435.84H1265.83V447.96H1189.15V435.84ZM1176.31 342.24H1192.03V354.84H1214.47V342.24H1230.31V391.2H1176.31V342.24ZM1192.03 366.84V378.72H1214.47V366.84H1192.03ZM1357.62 337.44H1373.58V448.92H1357.62V337.44ZM1287.06 410.04H1296.9C1316.58 410.04 1332.3 409.32 1349.94 406.32L1351.5 419.16C1333.5 422.4 1317.18 423 1296.9 423H1287.06V410.04ZM1286.94 346.92H1339.38V389.88H1303.26V414.84H1287.06V377.28H1323.06V359.64H1286.94V346.92ZM1416.41 355.08H1429.01V367.56C1429.01 392.64 1418.45 418.2 1398.05 427.8L1389.05 415.2C1407.41 406.56 1416.41 385.8 1416.41 367.56V355.08ZM1419.77 355.08H1432.37V367.56C1432.37 384.36 1441.01 404.04 1459.25 412.44L1450.49 425.04C1430.09 415.56 1419.77 391.2 1419.77 367.56V355.08ZM1393.37 348.24H1454.33V361.32H1393.37V348.24ZM1462.49 337.56H1478.57V448.68H1462.49V337.56ZM1474.97 379.92H1494.65V393.12H1474.97V379.92ZM1510.36 387.24L1506.28 379.44C1514.2 375.24 1518.04 370.2 1518.04 362.04L1517.2 351.12L1523.56 359.64C1521.64 361.32 1519.36 362.4 1516.84 362.4C1511.56 362.4 1507.24 358.92 1507.24 353.16C1507.24 347.04 1511.2 343.2 1516.84 343.2C1524.4 343.2 1528.48 349.2 1528.48 359.4C1528.48 371.64 1522.48 381 1510.36 387.24ZM1540.36 387.24L1536.28 379.44C1544.2 375.24 1548.04 370.2 1548.04 362.04L1547.2 351.12L1553.56 359.64C1551.76 361.32 1549.36 362.4 1546.84 362.4C1541.56 362.4 1537.24 358.92 1537.24 353.16C1537.24 347.04 1541.32 343.2 1546.84 343.2C1554.4 343.2 1558.48 349.2 1558.48 359.4C1558.48 371.64 1552.36 381 1540.36 387.24Z" fill="#6093FF"/>
<rect x="194" y="521" width="1532" height="140" rx="70" fill="#6093FF"/>
<path d="M292 592.1C287.2 592.1 284.65 588.425 284.65 581.9C284.65 574.25 288.4 568.475 295.975 564.575L298.525 569.525C293.575 572.075 291.175 575.3 291.175 580.325L291.7 587.225L287.65 581.825C288.925 580.85 290.35 580.1 292 580.1C295.225 580.1 297.925 582.275 297.925 585.8C297.925 589.7 295.45 592.1 292 592.1ZM351.79 560.225H361.84V629.675H351.79V560.225ZM359.59 586.1H371.89V594.35H359.59V586.1ZM309.49 565.7H319.39V582.575H333.34V565.7H343.24V613.625H309.49V565.7ZM319.39 590.3V605.6H333.34V590.3H319.39ZM421.084 560.3H431.059V601.475H421.084V560.3ZM428.209 576.575H440.284V584.825H428.209V576.575ZM385.834 604.475H431.059V628.925H385.834V604.475ZM421.309 612.275H395.659V621.05H421.309V612.275ZM378.859 590.975H384.709C398.359 590.975 406.759 590.75 416.359 588.95L417.259 596.825C407.509 598.7 398.734 599.075 384.709 599.075H378.859V590.975ZM378.784 563.675H410.509V584.825H388.759V595.4H378.859V577.4H400.684V571.625H378.784V563.675ZM450.703 591.275L448.153 586.4C453.103 583.775 455.503 580.625 455.503 575.525L454.978 568.7L458.953 574.025C457.753 575.075 456.328 575.75 454.753 575.75C451.453 575.75 448.753 573.575 448.753 569.975C448.753 566.15 451.228 563.75 454.753 563.75C459.478 563.75 462.028 567.5 462.028 573.875C462.028 581.525 458.278 587.375 450.703 591.275ZM469.768 595.625H532.543V603.575H469.768V595.625ZM477.343 620.525H525.493V628.475H477.343V620.525ZM477.343 608.225H487.318V623.075H477.343V608.225ZM501.193 562.25C516.268 562.25 526.318 567.725 526.318 576.575C526.318 585.425 516.268 590.9 501.193 590.9C486.043 590.9 476.068 585.425 476.068 576.575C476.068 567.725 486.043 562.25 501.193 562.25ZM501.193 570.2C491.818 570.2 486.343 572.375 486.343 576.575C486.343 580.85 491.818 582.95 501.193 582.95C510.568 582.95 516.043 580.85 516.043 576.575C516.043 572.375 510.568 570.2 501.193 570.2ZM600.154 560.15H610.204V629.6H600.154V560.15ZM607.579 586.7H619.804V594.875H607.579V586.7ZM581.929 567.35H591.679C591.679 588.2 583.729 606.05 560.629 617.675L555.079 610.1C573.304 600.65 581.929 587.9 581.929 569.075V567.35ZM558.904 567.35H587.029V575.375H558.904V567.35ZM640.348 573.8H648.448V576.5C648.448 589.175 642.298 600.5 629.098 604.625L624.298 596.825C635.548 593.3 640.348 584.9 640.348 576.5V573.8ZM642.148 573.8H650.323V576.5C650.323 584.3 655.198 592.325 666.448 595.7L661.648 603.5C648.523 599.6 642.148 588.65 642.148 576.5V573.8ZM626.698 568.4H663.973V576.2H626.698V568.4ZM640.348 560.75H650.323V571.325H640.348V560.75ZM661.798 580.4H677.923V588.575H661.798V580.4ZM672.898 560.3H682.873V611.675H672.898V560.3ZM637.048 620.525H684.448V628.475H637.048V620.525ZM637.048 607.4H647.023V625.775H637.048V607.4ZM743.917 560.225H753.367V629.675H743.917V560.225ZM734.617 586.925H746.167V594.95H734.617V586.925ZM728.392 561.425H737.617V626.375H728.392V561.425ZM695.692 605.825H700.567C709.117 605.825 716.242 605.525 724.492 604.025L725.242 612.125C716.842 613.775 709.492 614 700.567 614H695.692V605.825ZM695.692 568.25H721.342V576.275H705.592V609.725H695.692V568.25ZM762.736 566.3H803.611V574.175H762.736V566.3ZM783.211 576.35C793.186 576.35 800.236 581.525 800.236 589.175C800.236 596.825 793.186 601.925 783.211 601.925C773.161 601.925 766.111 596.825 766.111 589.175C766.111 581.525 773.161 576.35 783.211 576.35ZM783.211 583.85C778.711 583.85 775.711 585.65 775.711 589.175C775.711 592.625 778.711 594.425 783.211 594.425C787.636 594.425 790.711 592.625 790.711 589.175C790.711 585.65 787.636 583.85 783.211 583.85ZM807.436 560.225H817.411V603.8H807.436V560.225ZM814.636 578.15H826.636V586.25H814.636V578.15ZM771.061 606.65H817.411V629.675H807.436V614.6H771.061V606.65ZM778.186 559.85H788.161V570.8H778.186V559.85ZM837.88 566.075H881.83V574.1H837.88V566.075ZM831.805 613.25H894.58V621.35H831.805V613.25ZM844.93 591.35H854.83V615.8H844.93V591.35ZM878.905 566.075H888.955V572.9C888.955 581.3 888.955 590.9 886.48 605L876.58 604.025C878.905 590.825 878.905 581.075 878.905 572.9V566.075ZM862.105 591.35H871.93V615.8H862.105V591.35ZM944.042 593.6H954.017V603.275H944.042V593.6ZM917.717 587.75H980.492V595.55H917.717V587.75ZM925.442 562.25H972.542V584.075H925.442V562.25ZM962.717 569.975H935.267V576.425H962.717V569.975ZM924.917 599.9H972.917V617.75H934.817V623.9H924.992V610.85H963.092V607.325H924.917V599.9ZM924.992 621.725H974.717V629.225H924.992V621.725ZM1034.86 560.225H1044.84V611H1034.86V560.225ZM1022.86 580.4H1036.29V588.5H1022.86V580.4ZM1012.96 565.4H1023.46C1023.46 584.15 1011.84 597.875 991.661 604.25L987.536 596.3C1003.51 591.275 1012.96 581.675 1012.96 569.9V565.4ZM991.136 565.4H1019.34V573.425H991.136V565.4ZM999.311 620.525H1046.56V628.475H999.311V620.525ZM999.311 605.975H1009.36V625.1H999.311V605.975ZM1122.87 560.225H1132.32V629.675H1122.87V560.225ZM1113.57 586.925H1125.12V594.95H1113.57V586.925ZM1107.35 561.425H1116.57V626.375H1107.35V561.425ZM1074.65 605.825H1079.52C1088.07 605.825 1095.2 605.525 1103.45 604.025L1104.2 612.125C1095.8 613.775 1088.45 614 1079.52 614H1074.65V605.825ZM1074.65 568.25H1100.3V576.275H1084.55V609.725H1074.65V568.25ZM1172.74 574.4H1191.64V582.425H1172.74V574.4ZM1172.74 595.925H1191.64V603.95H1172.74V595.925ZM1160.74 565.025C1171.09 565.025 1178.67 574.625 1178.67 589.775C1178.67 605.075 1171.09 614.675 1160.74 614.675C1150.32 614.675 1142.82 605.075 1142.82 589.775C1142.82 574.625 1150.32 565.025 1160.74 565.025ZM1160.74 574.1C1155.72 574.1 1152.27 579.575 1152.27 589.775C1152.27 600.125 1155.72 605.675 1160.74 605.675C1165.84 605.675 1169.22 600.125 1169.22 589.775C1169.22 579.575 1165.84 574.1 1160.74 574.1ZM1190.07 560.15H1199.97V629.825H1190.07V560.15ZM1233.15 562.1H1284.9V569.525H1233.15V562.1ZM1233.68 578.375H1284.38V585.8H1233.68V578.375ZM1242 565.025H1251.98V583.175H1242V565.025ZM1266.08 565.025H1276.05V583.175H1266.08V565.025ZM1227.68 589.4H1290.45V597.2H1227.68V589.4ZM1234.88 601.025H1282.88V618.275H1244.78V624.725H1234.95V611.6H1273.05V608.15H1234.88V601.025ZM1234.95 621.95H1284.68V629.225H1234.95V621.95ZM1346.4 560.225H1355.85V606.875H1346.4V560.225ZM1338.22 577.025H1349.17V584.975H1338.22V577.025ZM1331.55 561.5H1340.85V601.1H1331.55V561.5ZM1299.45 592.85H1304.25C1314.3 592.85 1320.75 592.625 1328.25 591.125L1329.15 598.925C1321.35 600.5 1314.6 600.65 1304.25 600.65H1299.45V592.85ZM1299.37 565.025H1325.7V586.25H1309.12V598.1H1299.45V579.05H1316.1V572.9H1299.37V565.025ZM1326.97 603.95H1335.45V605.15C1335.45 617.225 1325.85 626.9 1308.75 629.45L1304.85 621.725C1319.85 619.85 1326.97 612.275 1326.97 605.15V603.95ZM1328.4 603.95H1336.87V605.15C1336.87 612.275 1344 619.85 1359 621.725L1355.1 629.45C1338 626.9 1328.4 617.225 1328.4 605.15V603.95ZM1365.67 593.825H1428.44V601.7H1365.67V593.825ZM1391.99 586.7H1401.97V597.275H1391.99V586.7ZM1371.14 562.1H1422.89V570.05H1371.14V562.1ZM1371.67 580.475H1422.37V588.425H1371.67V580.475ZM1379.99 565.025H1389.97V585.65H1379.99V565.025ZM1404.07 565.025H1414.04V585.65H1404.07V565.025ZM1372.94 606.275H1420.94V628.925H1372.94V606.275ZM1411.19 614.075H1382.77V621.05H1411.19V614.075ZM1482.29 560.15H1492.34V629.825H1482.29V560.15ZM1454.91 565.025C1465.41 565.025 1473.14 574.625 1473.14 589.775C1473.14 605.075 1465.41 614.675 1454.91 614.675C1444.41 614.675 1436.69 605.075 1436.69 589.775C1436.69 574.625 1444.41 565.025 1454.91 565.025ZM1454.91 574.1C1449.74 574.1 1446.21 579.575 1446.21 589.775C1446.21 600.125 1449.74 605.675 1454.91 605.675C1460.09 605.675 1463.54 600.125 1463.54 589.775C1463.54 579.575 1460.09 574.1 1454.91 574.1ZM1531.4 585.8H1542.8V593.825H1531.4V585.8ZM1553.83 560.225H1563.35V629.675H1553.83V560.225ZM1539.65 561.275H1549.03V626.525H1539.65V561.275ZM1519.25 565.1C1528.48 565.1 1534.4 574.625 1534.4 590.3C1534.4 606.05 1528.48 615.575 1519.25 615.575C1510.1 615.575 1504.25 606.05 1504.25 590.3C1504.25 574.625 1510.1 565.1 1519.25 565.1ZM1519.25 574.475C1515.5 574.475 1513.33 579.725 1513.33 590.3C1513.33 600.95 1515.5 606.125 1519.25 606.125C1523.15 606.125 1525.33 600.95 1525.33 590.3C1525.33 579.725 1523.15 574.475 1519.25 574.475ZM1586.52 595.475H1596.42V614.975H1586.52V595.475ZM1611.72 595.475H1621.7V614.975H1611.72V595.475ZM1572.72 613.55H1635.57V621.65H1572.72V613.55ZM1604.07 563.6C1619 563.6 1630.02 570.95 1630.02 582.275C1630.02 593.6 1619 600.875 1604.07 600.875C1589.07 600.875 1578.12 593.6 1578.12 582.275C1578.12 570.95 1589.07 563.6 1604.07 563.6ZM1604.07 571.4C1594.4 571.4 1587.95 575.375 1587.95 582.275C1587.95 589.1 1594.4 593.15 1604.07 593.15C1613.75 593.15 1620.2 589.1 1620.2 582.275C1620.2 575.375 1613.75 571.4 1604.07 571.4Z" fill="white"/>
<path d="M337.453 724.96H358.733V727.36H337.453V724.96ZM348.093 729.36C353.213 729.36 356.653 731.88 356.653 735.84C356.653 739.8 353.213 742.28 348.093 742.28C342.933 742.28 339.493 739.8 339.493 735.84C339.493 731.88 342.933 729.36 348.093 729.36ZM348.093 731.68C344.613 731.68 342.293 733.32 342.293 735.84C342.293 738.32 344.613 739.96 348.093 739.96C351.493 739.96 353.813 738.32 353.813 735.84C353.813 733.32 351.493 731.68 348.093 731.68ZM362.253 721.04H365.213V743.52H362.253V721.04ZM364.413 731.08H370.613V733.56H364.413V731.08ZM341.933 745.56H365.213V757.04H362.253V748H341.933V745.56ZM346.613 720.84H349.573V726.28H346.613V720.84ZM381.85 723.28H384.25V728.24C384.25 733.44 381.01 739.04 375.85 741.36L374.21 739.04C378.89 736.96 381.85 732.28 381.85 728.24V723.28ZM382.33 723.28H384.69V728.24C384.69 732.24 387.57 736.32 392.13 738.08L390.53 740.36C385.41 738.32 382.33 733.4 382.33 728.24V723.28ZM401.57 721.08H404.41V743.32H401.57V721.08ZM395.57 730.84H402.57V733.28H395.57V730.84ZM393.85 721.76H396.65V742.16H393.85V721.76ZM392.65 744.16C400.05 744.16 404.61 746.52 404.61 750.56C404.61 754.64 400.05 756.96 392.65 756.96C385.25 756.96 380.69 754.64 380.69 750.56C380.69 746.52 385.25 744.16 392.65 744.16ZM392.65 746.48C387.09 746.48 383.61 748 383.61 750.56C383.61 753.12 387.09 754.68 392.65 754.68C398.21 754.68 401.65 753.12 401.65 750.56C401.65 748 398.21 746.48 392.65 746.48ZM421.407 742.56H424.407V748.52H421.407V742.56ZM437.167 721.04H440.127V757.04H437.167V721.04ZM411.567 750.04L411.167 747.52C418.007 747.48 427.007 747.4 434.807 746.4L435.047 748.6C427.007 749.92 418.247 750.04 411.567 750.04ZM411.927 725.52H433.807V727.92H411.927V725.52ZM422.847 730.08C428.007 730.08 431.447 732.72 431.447 736.76C431.447 740.8 428.007 743.4 422.847 743.4C417.727 743.4 414.287 740.8 414.287 736.76C414.287 732.72 417.727 730.08 422.847 730.08ZM422.847 732.4C419.447 732.4 417.087 734.16 417.087 736.76C417.087 739.32 419.447 741.04 422.847 741.04C426.287 741.04 428.647 739.32 428.647 736.76C428.647 734.16 426.287 732.4 422.847 732.4ZM421.407 721H424.367V726.8H421.407V721ZM484.27 721.04H487.15V757.04H484.27V721.04ZM477.95 735.56H485.07V738.04H477.95V735.56ZM476.11 721.84H478.87V755.16H476.11V721.84ZM457.99 745.52H460.31C465.71 745.52 469.31 745.36 473.43 744.48L473.75 746.96C469.43 747.88 465.83 748.04 460.31 748.04H457.99V745.52ZM457.99 725.44H471.39V727.88H460.91V746.64H457.99V725.44ZM509.667 729.16H520.787V731.64H509.667V729.16ZM509.667 740.6H520.787V743.08H509.667V740.6ZM502.987 723.84C508.227 723.84 511.907 728.72 511.907 736.36C511.907 743.96 508.227 748.88 502.987 748.88C497.787 748.88 494.107 743.96 494.107 736.36C494.107 728.72 497.787 723.84 502.987 723.84ZM502.987 726.48C499.387 726.48 496.907 730.44 496.907 736.36C496.907 742.28 499.387 746.24 502.987 746.24C506.587 746.24 509.107 742.28 509.107 736.36C509.107 730.44 506.587 726.48 502.987 726.48ZM520.027 721H522.987V757.08H520.027V721ZM545.024 740.04H547.944V746.4H545.024V740.04ZM530.224 738.52H562.744V740.96H530.224V738.52ZM533.264 722.2H559.624V724.64H533.264V722.2ZM533.384 732.52H559.504V734.96H533.384V732.52ZM538.864 723.32H541.824V734.16H538.864V723.32ZM551.104 723.32H554.024V734.16H551.104V723.32ZM534.264 745.36H558.744V756.56H534.264V745.36ZM555.864 747.76H537.144V754.12H555.864V747.76ZM595.127 730.48H603.447V732.96H595.127V730.48ZM602.487 721.04H605.447V742.52H602.487V721.04ZM593.687 743.68C601.087 743.68 605.607 746.12 605.607 750.36C605.607 754.56 601.087 757 593.687 757C586.287 757 581.727 754.56 581.727 750.36C581.727 746.12 586.287 743.68 593.687 743.68ZM593.687 746C588.127 746 584.647 747.64 584.647 750.36C584.647 753.04 588.127 754.68 593.687 754.68C599.247 754.68 602.687 753.04 602.687 750.36C602.687 747.64 599.247 746 593.687 746ZM585.247 724.68H587.687V727.72C587.687 734.28 583.487 739.88 577.647 742.12L576.127 739.76C581.367 737.8 585.247 732.96 585.247 727.72V724.68ZM585.807 724.68H588.247V727.68C588.247 732.4 591.927 736.92 597.087 738.72L595.567 741.08C589.807 738.96 585.807 733.68 585.807 727.68V724.68ZM577.087 723.76H596.287V726.2H577.087V723.76ZM612.724 749.92H645.404V752.4H612.724V749.92ZM627.524 741.12H630.444V750.68H627.524V741.12ZM616.644 723.6H619.564V730.2H638.484V723.6H641.404V741.96H616.644V723.6ZM619.564 732.64V739.52H638.484V732.64H619.564ZM649.48 737.88H682.16V740.16H649.48V737.88ZM653.44 743.24H678.04V750.8H656.44V755.2H653.52V748.68H675.12V745.4H653.44V743.24ZM653.52 754.36H679.24V756.56H653.52V754.36ZM653.68 722.16H677.92V729.48H656.68V733.56H653.76V727.4H675V724.32H653.68V722.16ZM653.76 732.8H678.56V735H653.76V732.8ZM704.904 738.04H707.824V742.52H704.904V738.04ZM720.064 721.08H723.024V745.12H720.064V721.08ZM721.704 732.04H728.424V734.52H721.704V732.04ZM695.464 744.04L695.064 741.6C701.504 741.6 710.344 741.56 717.824 740.48L718.024 742.6C710.304 744 701.744 744 695.464 744.04ZM699.464 747H723.024V757.04H720.064V749.4H699.464V747ZM695.984 724.4H716.704V726.68H695.984V724.4ZM706.344 728.16C711.344 728.16 714.664 730.16 714.664 733.48C714.664 736.76 711.344 738.8 706.344 738.8C701.304 738.8 697.984 736.76 697.984 733.48C697.984 730.16 701.304 728.16 706.344 728.16ZM706.344 730.24C702.984 730.24 700.784 731.48 700.784 733.48C700.784 735.4 702.984 736.72 706.344 736.72C709.664 736.72 711.864 735.4 711.864 733.48C711.864 731.48 709.664 730.24 706.344 730.24ZM704.904 720.76H707.824V725.56H704.904V720.76ZM758.5 721.08H761.46V747.44H758.5V721.08ZM738.5 753.76H762.62V756.24H738.5V753.76ZM738.5 744.72H741.42V754.56H738.5V744.72ZM742.22 723.6C747.54 723.6 751.54 727.24 751.54 732.4C751.54 737.6 747.54 741.24 742.22 741.24C736.86 741.24 732.86 737.6 732.86 732.4C732.86 727.24 736.86 723.6 742.22 723.6ZM742.22 726.16C738.54 726.16 735.78 728.76 735.78 732.4C735.78 736.04 738.54 738.64 742.22 738.64C745.9 738.64 748.66 736.04 748.66 732.4C748.66 728.76 745.9 726.16 742.22 726.16ZM793.457 721.04H796.417V757.04H793.457V721.04ZM795.697 735.96H802.417V738.44H795.697V735.96ZM768.617 726.84H789.897V729.28H768.617V726.84ZM779.457 732.44C784.497 732.44 788.137 735.84 788.137 740.68C788.137 745.52 784.497 748.88 779.457 748.88C774.417 748.88 770.737 745.52 770.737 740.68C770.737 735.84 774.417 732.44 779.457 732.44ZM779.457 734.92C776.017 734.92 773.537 737.32 773.537 740.68C773.537 744 776.017 746.4 779.457 746.4C782.817 746.4 785.337 744 785.337 740.68C785.337 737.32 782.817 734.92 779.457 734.92ZM777.897 721.44H780.857V728H777.897V721.44ZM832.174 721.04H835.134V757.04H832.174V721.04ZM823.534 735.56H833.494V738.04H823.534V735.56ZM820.694 724.92H823.614C823.614 735.08 819.214 744.2 807.334 750.08L805.694 747.8C816.214 742.64 820.694 734.8 820.694 725.4V724.92ZM807.214 724.92H822.254V727.36H807.214V724.92ZM869.211 735.52H875.891V738.04H869.211V735.52ZM867.011 721H870.011V757.04H867.011V721ZM843.891 724.56H846.851V746.88H843.891V724.56ZM843.891 745.36H846.731C852.091 745.36 857.531 744.96 863.491 743.72L863.891 746.24C857.691 747.48 852.211 747.84 846.731 747.84H843.891V745.36ZM880.088 761.44L879.288 759.48C881.648 758.36 883.128 756.44 883.128 753.96L882.688 750.8L884.408 753.36C883.968 753.96 883.328 754.12 882.648 754.12C881.328 754.12 880.208 753.24 880.208 751.72C880.208 750.24 881.368 749.32 882.728 749.32C884.528 749.32 885.608 750.84 885.608 753.36C885.608 757.04 883.448 759.96 880.088 761.44ZM932.363 721H935.363V757.08H932.363V721ZM934.643 735.4H941.363V737.88H934.643V735.4ZM909.323 745.52H912.123C918.883 745.52 923.523 745.28 928.883 744.28L929.243 746.8C923.683 747.84 919.003 748.04 912.123 748.04H909.323V745.52ZM909.323 724.56H926.043V727H912.283V746.64H909.323V724.56ZM944.52 741.08H977.2V743.52H944.52V741.08ZM948.88 753.76H973.76V756.24H948.88V753.76ZM948.88 746.48H951.84V754.64H948.88V746.48ZM948.72 722.28H972.96V731.04H951.72V736.08H948.8V728.8H970.04V724.64H948.72V722.28ZM948.8 735.28H973.72V737.6H948.8V735.28ZM990.383 724.96H1011.66V727.36H990.383V724.96ZM1001.02 729.36C1006.14 729.36 1009.58 731.88 1009.58 735.84C1009.58 739.8 1006.14 742.28 1001.02 742.28C995.863 742.28 992.423 739.8 992.423 735.84C992.423 731.88 995.863 729.36 1001.02 729.36ZM1001.02 731.68C997.543 731.68 995.223 733.32 995.223 735.84C995.223 738.32 997.543 739.96 1001.02 739.96C1004.42 739.96 1006.74 738.32 1006.74 735.84C1006.74 733.32 1004.42 731.68 1001.02 731.68ZM1015.18 721.04H1018.14V743.52H1015.18V721.04ZM1017.34 731.08H1023.54V733.56H1017.34V731.08ZM994.863 745.56H1018.14V757.04H1015.18V748H994.863V745.56ZM999.543 720.84H1002.5V726.28H999.543V720.84ZM1027.02 741.76H1059.7V744.2H1027.02V741.76ZM1041.82 743.24H1044.74V757.04H1041.82V743.24ZM1043.3 722.52C1050.78 722.52 1055.82 725.56 1055.82 730.36C1055.82 735.16 1050.78 738.24 1043.3 738.24C1035.82 738.24 1030.78 735.16 1030.78 730.36C1030.78 725.56 1035.82 722.52 1043.3 722.52ZM1043.3 724.88C1037.66 724.88 1033.78 727.08 1033.78 730.36C1033.78 733.68 1037.66 735.8 1043.3 735.8C1048.94 735.8 1052.78 733.68 1052.78 730.36C1052.78 727.08 1048.94 724.88 1043.3 724.88ZM1063.86 736.24H1096.42V738.68H1063.86V736.24ZM1068.26 730.76H1092.54V733.16H1068.26V730.76ZM1068.26 722.32H1092.14V724.72H1071.18V732.64H1068.26V722.32ZM1067.82 742H1092.18V750.28H1070.82V755.08H1067.94V748.04H1089.26V744.36H1067.82V742ZM1067.94 754.24H1093.3V756.6H1067.94V754.24ZM1115.29 735.16H1122.25V737.64H1115.29V735.16ZM1128.33 721.04H1131.21V757.04H1128.33V721.04ZM1121.25 721.84H1124.05V755.2H1121.25V721.84ZM1108.77 724.12C1113.41 724.12 1116.41 728.92 1116.41 736.56C1116.41 744.2 1113.41 749 1108.77 749C1104.13 749 1101.13 744.2 1101.13 736.56C1101.13 728.92 1104.13 724.12 1108.77 724.12ZM1108.77 726.88C1105.77 726.88 1103.85 730.68 1103.85 736.56C1103.85 742.44 1105.77 746.28 1108.77 746.28C1111.77 746.28 1113.69 742.44 1113.69 736.56C1113.69 730.68 1111.77 726.88 1108.77 726.88ZM1165.13 721.04H1168.01V757.04H1165.13V721.04ZM1149.25 735.92H1158.57V738.32H1149.25V735.92ZM1157.65 722H1160.45V755.16H1157.65V722ZM1150.01 725.64H1152.85C1152.85 734.92 1148.93 743.48 1139.29 749.24L1137.53 747.08C1146.05 742 1150.01 734.56 1150.01 726.16V725.64ZM1139.01 725.64H1151.13V728.08H1139.01V725.64ZM1210.79 721.04H1213.67V757.04H1210.79V721.04ZM1204.47 735.56H1211.59V738.04H1204.47V735.56ZM1202.63 721.84H1205.39V755.16H1202.63V721.84ZM1184.51 745.52H1186.83C1192.23 745.52 1195.83 745.36 1199.95 744.48L1200.27 746.96C1195.95 747.88 1192.35 748.04 1186.83 748.04H1184.51V745.52ZM1184.51 725.44H1197.91V727.88H1187.43V746.64H1184.51V725.44ZM1236.19 729.16H1247.31V731.64H1236.19V729.16ZM1236.19 740.6H1247.31V743.08H1236.19V740.6ZM1229.51 723.84C1234.75 723.84 1238.43 728.72 1238.43 736.36C1238.43 743.96 1234.75 748.88 1229.51 748.88C1224.31 748.88 1220.63 743.96 1220.63 736.36C1220.63 728.72 1224.31 723.84 1229.51 723.84ZM1229.51 726.48C1225.91 726.48 1223.43 730.44 1223.43 736.36C1223.43 742.28 1225.91 746.24 1229.51 746.24C1233.11 746.24 1235.63 742.28 1235.63 736.36C1235.63 730.44 1233.11 726.48 1229.51 726.48ZM1246.55 721H1249.51V757.08H1246.55V721ZM1256.71 737.88H1289.39V740.16H1256.71V737.88ZM1260.67 743.24H1285.27V750.8H1263.67V755.2H1260.75V748.68H1282.35V745.4H1260.67V743.24ZM1260.75 754.36H1286.47V756.56H1260.75V754.36ZM1260.91 722.16H1285.15V729.48H1263.91V733.56H1260.99V727.4H1282.23V724.32H1260.91V722.16ZM1260.99 732.8H1285.79V735H1260.99V732.8ZM1310.61 739.6H1313.53V750.52H1310.61V739.6ZM1323.93 739.6H1326.89V750.52H1323.93V739.6ZM1302.45 749.88H1335.13V752.36H1302.45V749.88ZM1318.69 723.4C1326.33 723.4 1331.73 727 1331.73 732.6C1331.73 738.16 1326.33 741.76 1318.69 741.76C1311.13 741.76 1305.69 738.16 1305.69 732.6C1305.69 727 1311.13 723.4 1318.69 723.4ZM1318.69 725.76C1312.81 725.76 1308.53 728.48 1308.53 732.6C1308.53 736.68 1312.81 739.4 1318.69 739.4C1324.61 739.4 1328.89 736.68 1328.89 732.6C1328.89 728.48 1324.61 725.76 1318.69 725.76ZM1348.41 727.16H1350.85V728.72C1350.85 735 1346.69 740.2 1340.85 742.24L1339.41 739.92C1344.61 738.16 1348.41 733.72 1348.41 728.72V727.16ZM1348.93 727.16H1351.33V728.72C1351.33 733.32 1355.29 737.4 1360.49 738.96L1359.13 741.28C1353.21 739.44 1348.93 734.64 1348.93 728.72V727.16ZM1340.25 725.48H1359.45V727.88H1340.25V725.48ZM1348.41 720.84H1351.37V726.32H1348.41V720.84ZM1358.37 731.4H1366.69V733.88H1358.37V731.4ZM1365.81 721.04H1368.77V742.84H1365.81V721.04ZM1357.01 743.84C1364.41 743.84 1368.93 746.28 1368.93 750.4C1368.93 754.56 1364.41 756.96 1357.01 756.96C1349.57 756.96 1345.05 754.56 1345.05 750.4C1345.05 746.28 1349.57 743.84 1357.01 743.84ZM1357.01 746.2C1351.41 746.2 1347.97 747.8 1347.97 750.4C1347.97 753.04 1351.41 754.6 1357.01 754.6C1362.57 754.6 1366.01 753.04 1366.01 750.4C1366.01 747.8 1362.57 746.2 1357.01 746.2ZM1409.87 720.88H1412.83V740.88H1409.87V720.88ZM1411.55 729.72H1418.27V732.24H1411.55V729.72ZM1390.15 742.76H1412.83V750.64H1393.11V755.16H1390.23V748.44H1409.91V745.04H1390.15V742.76ZM1390.23 754.32H1414.15V756.64H1390.23V754.32ZM1385.07 724.4H1406.35V726.72H1385.07V724.4ZM1395.71 728.44C1400.87 728.44 1404.27 730.72 1404.27 734.36C1404.27 738.04 1400.87 740.28 1395.71 740.28C1390.51 740.28 1387.11 738.04 1387.11 734.36C1387.11 730.72 1390.51 728.44 1395.71 728.44ZM1395.71 730.68C1392.19 730.68 1389.91 732.12 1389.91 734.36C1389.91 736.6 1392.19 738.08 1395.71 738.08C1399.15 738.08 1401.43 736.6 1401.43 734.36C1401.43 732.12 1399.15 730.68 1395.71 730.68ZM1394.23 720.64H1397.19V726H1394.23V720.64ZM1445.41 722.32H1448.01V724.44C1448.01 731.28 1440.69 736.08 1433.61 737.28L1432.41 734.92C1438.65 733.96 1445.41 729.68 1445.41 724.44V722.32ZM1445.93 722.32H1448.49V724.44C1448.49 729.6 1455.33 733.96 1461.49 734.92L1460.29 737.28C1453.25 736.08 1445.93 731.16 1445.93 724.44V722.32ZM1445.41 743.24H1448.33V757.04H1445.41V743.24ZM1430.65 741.44H1463.21V743.92H1430.65V741.44ZM1485.52 743.24H1487.84V745.32C1487.84 749.92 1484.76 754.6 1479.68 756.56L1478.16 754.36C1482.68 752.68 1485.52 748.76 1485.52 745.32V743.24ZM1486.12 743.24H1488.36V745.32C1488.36 748.96 1490.56 752.88 1494.88 754.6L1493.6 756.88C1488.52 754.88 1486.12 750 1486.12 745.32V743.24ZM1498.84 743.24H1501.08V745.32C1501.08 749.44 1498.64 754.72 1493.6 756.88L1492.36 754.6C1496.6 752.64 1498.84 748.44 1498.84 745.32V743.24ZM1499.4 743.24H1501.72V745.32C1501.72 749.04 1504.52 752.8 1509.08 754.36L1507.56 756.56C1502.4 754.68 1499.4 750.16 1499.4 745.32V743.24ZM1502.84 721.08H1505.8V741.68H1502.84V721.08ZM1486.56 723.16C1491.96 723.16 1495.88 726.56 1495.88 731.56C1495.88 736.52 1491.96 739.88 1486.56 739.88C1481.12 739.88 1477.2 736.52 1477.2 731.56C1477.2 726.56 1481.12 723.16 1486.56 723.16ZM1486.56 725.68C1482.84 725.68 1480.12 728.12 1480.12 731.56C1480.12 735 1482.84 737.44 1486.56 737.44C1490.28 737.44 1493 735 1493 731.56C1493 728.12 1490.28 725.68 1486.56 725.68ZM1522.71 723.84C1527.95 723.84 1531.63 728.72 1531.63 736.36C1531.63 743.96 1527.95 748.88 1522.71 748.88C1517.51 748.88 1513.83 743.96 1513.83 736.36C1513.83 728.72 1517.51 723.84 1522.71 723.84ZM1522.71 726.48C1519.11 726.48 1516.63 730.44 1516.63 736.36C1516.63 742.28 1519.11 746.24 1522.71 746.24C1526.31 746.24 1528.83 742.28 1528.83 736.36C1528.83 730.44 1526.31 726.48 1522.71 726.48ZM1539.75 721H1542.71V757.08H1539.75V721ZM1530.63 734.88H1541.07V737.32H1530.63V734.88ZM1558.11 739.6H1561.03V750.52H1558.11V739.6ZM1571.43 739.6H1574.39V750.52H1571.43V739.6ZM1549.95 749.88H1582.63V752.36H1549.95V749.88ZM1566.19 723.4C1573.83 723.4 1579.23 727 1579.23 732.6C1579.23 738.16 1573.83 741.76 1566.19 741.76C1558.63 741.76 1553.19 738.16 1553.19 732.6C1553.19 727 1558.63 723.4 1566.19 723.4ZM1566.19 725.76C1560.31 725.76 1556.03 728.48 1556.03 732.6C1556.03 736.68 1560.31 739.4 1566.19 739.4C1572.11 739.4 1576.39 736.68 1576.39 732.6C1576.39 728.48 1572.11 725.76 1566.19 725.76Z" fill="#6093FF"/>
</svg>
