<svg width="1920" height="1080" viewBox="0 0 1920 1080" fill="none" xmlns="http://www.w3.org/2000/svg">
<rect width="1920" height="1080" fill="white"/>
<path d="M778.301 689.155C781.631 689.155 784.526 689.785 786.986 691.045C789.446 692.305 791.336 694.075 792.656 696.355C793.976 698.605 794.636 701.215 794.636 704.185C794.636 706.555 794.246 708.835 793.466 711.025C792.686 713.185 791.546 714.94 790.046 716.29C788.576 717.64 786.851 718.315 784.871 718.315C783.371 718.315 782.216 717.94 781.406 717.19C780.596 716.44 780.131 715.42 780.011 714.13C779.081 715.42 777.896 716.44 776.456 717.19C775.046 717.94 773.546 718.315 771.956 718.315C769.676 718.315 767.876 717.625 766.556 716.245C765.266 714.835 764.621 712.945 764.621 710.575C764.621 708.325 765.086 706.225 766.016 704.275C766.976 702.325 768.296 700.765 769.976 699.595C771.656 698.395 773.561 697.795 775.691 697.795C778.541 697.795 780.461 698.875 781.451 701.035L781.946 698.245H785.501L783.251 711.25C783.161 711.82 783.116 712.345 783.116 712.825C783.116 714.625 783.911 715.525 785.501 715.525C786.701 715.525 787.736 714.955 788.606 713.815C789.506 712.675 790.181 711.25 790.631 709.54C791.081 707.8 791.306 706.09 791.306 704.41C791.306 700.48 790.121 697.435 787.751 695.275C785.411 693.115 782.096 692.035 777.806 692.035C774.236 692.035 771.011 692.905 768.131 694.645C765.281 696.355 763.046 698.71 761.426 701.71C759.806 704.71 758.996 708.025 758.996 711.655C758.966 715.615 760.151 718.66 762.551 720.79C764.951 722.95 768.281 724.03 772.541 724.03C775.361 724.03 777.851 723.52 780.011 722.5L780.551 725.29C777.881 726.4 774.941 726.955 771.731 726.955C768.521 726.955 765.686 726.34 763.226 725.11C760.796 723.91 758.906 722.17 757.556 719.89C756.236 717.64 755.576 715.015 755.576 712.015C755.576 707.785 756.551 703.93 758.501 700.45C760.451 696.94 763.151 694.18 766.601 692.17C770.081 690.16 773.981 689.155 778.301 689.155ZM773.171 715.12C774.521 715.12 775.766 714.73 776.906 713.95C778.046 713.14 778.946 712.06 779.606 710.71C780.266 709.33 780.596 707.83 780.596 706.21C780.596 704.65 780.161 703.39 779.291 702.43C778.451 701.44 777.251 700.945 775.691 700.945C774.251 700.945 772.976 701.38 771.866 702.25C770.786 703.09 769.946 704.215 769.346 705.625C768.746 707.005 768.446 708.445 768.446 709.945C768.446 711.535 768.851 712.795 769.661 713.725C770.471 714.655 771.641 715.12 773.171 715.12ZM805.468 697.93C806.308 696.46 807.538 695.26 809.158 694.33C810.778 693.4 812.623 692.935 814.693 692.935C816.913 692.935 818.908 693.46 820.678 694.51C822.448 695.56 823.843 697.045 824.863 698.965C825.883 700.855 826.393 703.06 826.393 705.58C826.393 708.07 825.883 710.29 824.863 712.24C823.843 714.19 822.433 715.705 820.633 716.785C818.863 717.865 816.883 718.405 814.693 718.405C812.563 718.405 810.688 717.94 809.068 717.01C807.478 716.08 806.278 714.895 805.468 713.455V718H801.373V684.7H805.468V697.93ZM822.208 705.58C822.208 703.72 821.833 702.1 821.083 700.72C820.333 699.34 819.313 698.29 818.023 697.57C816.763 696.85 815.368 696.49 813.838 696.49C812.338 696.49 810.943 696.865 809.653 697.615C808.393 698.335 807.373 699.4 806.593 700.81C805.843 702.19 805.468 703.795 805.468 705.625C805.468 707.485 805.843 709.12 806.593 710.53C807.373 711.91 808.393 712.975 809.653 713.725C810.943 714.445 812.338 714.805 813.838 714.805C815.368 714.805 816.763 714.445 818.023 713.725C819.313 712.975 820.333 711.91 821.083 710.53C821.833 709.12 822.208 707.47 822.208 705.58ZM830.253 705.58C830.253 703.06 830.763 700.855 831.783 698.965C832.803 697.045 834.198 695.56 835.968 694.51C837.768 693.46 839.763 692.935 841.953 692.935C844.113 692.935 845.988 693.4 847.578 694.33C849.168 695.26 850.353 696.43 851.133 697.84V693.34H855.273V718H851.133V713.41C850.323 714.85 849.108 716.05 847.488 717.01C845.898 717.94 844.038 718.405 841.908 718.405C839.718 718.405 837.738 717.865 835.968 716.785C834.198 715.705 832.803 714.19 831.783 712.24C830.763 710.29 830.253 708.07 830.253 705.58ZM851.133 705.625C851.133 703.765 850.758 702.145 850.008 700.765C849.258 699.385 848.238 698.335 846.948 697.615C845.688 696.865 844.293 696.49 842.763 696.49C841.233 696.49 839.838 696.85 838.578 697.57C837.318 698.29 836.313 699.34 835.563 700.72C834.813 702.1 834.438 703.72 834.438 705.58C834.438 707.47 834.813 709.12 835.563 710.53C836.313 711.91 837.318 712.975 838.578 713.725C839.838 714.445 841.233 714.805 842.763 714.805C844.293 714.805 845.688 714.445 846.948 713.725C848.238 712.975 849.258 711.91 850.008 710.53C850.758 709.12 851.133 707.485 851.133 705.625ZM866.288 697.345C867.008 695.935 868.028 694.84 869.348 694.06C870.698 693.28 872.333 692.89 874.253 692.89V697.12H873.173C868.583 697.12 866.288 699.61 866.288 704.59V718H862.193V693.34H866.288V697.345ZM877.45 705.58C877.45 703.06 877.96 700.855 878.98 698.965C880 697.045 881.395 695.56 883.165 694.51C884.965 693.46 886.96 692.935 889.15 692.935C891.31 692.935 893.185 693.4 894.775 694.33C896.365 695.26 897.55 696.43 898.33 697.84V693.34H902.47V718H898.33V713.41C897.52 714.85 896.305 716.05 894.685 717.01C893.095 717.94 891.235 718.405 889.105 718.405C886.915 718.405 884.935 717.865 883.165 716.785C881.395 715.705 880 714.19 878.98 712.24C877.96 710.29 877.45 708.07 877.45 705.58ZM898.33 705.625C898.33 703.765 897.955 702.145 897.205 700.765C896.455 699.385 895.435 698.335 894.145 697.615C892.885 696.865 891.49 696.49 889.96 696.49C888.43 696.49 887.035 696.85 885.775 697.57C884.515 698.29 883.51 699.34 882.76 700.72C882.01 702.1 881.635 703.72 881.635 705.58C881.635 707.47 882.01 709.12 882.76 710.53C883.51 711.91 884.515 712.975 885.775 713.725C887.035 714.445 888.43 714.805 889.96 714.805C891.49 714.805 892.885 714.445 894.145 713.725C895.435 712.975 896.455 711.91 897.205 710.53C897.955 709.12 898.33 707.485 898.33 705.625ZM939.045 692.89C940.965 692.89 942.675 693.295 944.175 694.105C945.675 694.885 946.86 696.07 947.73 697.66C948.6 699.25 949.035 701.185 949.035 703.465V718H944.985V704.05C944.985 701.59 944.37 699.715 943.14 698.425C941.94 697.105 940.305 696.445 938.235 696.445C936.105 696.445 934.41 697.135 933.15 698.515C931.89 699.865 931.26 701.83 931.26 704.41V718H927.21V704.05C927.21 701.59 926.595 699.715 925.365 698.425C924.165 697.105 922.53 696.445 920.46 696.445C918.33 696.445 916.635 697.135 915.375 698.515C914.115 699.865 913.485 701.83 913.485 704.41V718H909.39V693.34H913.485V696.895C914.295 695.605 915.375 694.615 916.725 693.925C918.105 693.235 919.62 692.89 921.27 692.89C923.34 692.89 925.17 693.355 926.76 694.285C928.35 695.215 929.535 696.58 930.315 698.38C931.005 696.64 932.145 695.29 933.735 694.33C935.325 693.37 937.095 692.89 939.045 692.89ZM980.953 719.71V723.49H957.013V719.71H980.953ZM999.511 718.405C997.201 718.405 995.101 717.88 993.211 716.83C991.351 715.78 989.881 714.295 988.801 712.375C987.751 710.425 987.226 708.175 987.226 705.625C987.226 703.105 987.766 700.885 988.846 698.965C989.956 697.015 991.456 695.53 993.346 694.51C995.236 693.46 997.351 692.935 999.691 692.935C1002.03 692.935 1004.15 693.46 1006.04 694.51C1007.93 695.53 1009.41 697 1010.49 698.92C1011.6 700.84 1012.16 703.075 1012.16 705.625C1012.16 708.175 1011.59 710.425 1010.45 712.375C1009.34 714.295 1007.82 715.78 1005.9 716.83C1003.98 717.88 1001.85 718.405 999.511 718.405ZM999.511 714.805C1000.98 714.805 1002.36 714.46 1003.65 713.77C1004.94 713.08 1005.98 712.045 1006.76 710.665C1007.57 709.285 1007.97 707.605 1007.97 705.625C1007.97 703.645 1007.58 701.965 1006.8 700.585C1006.02 699.205 1005 698.185 1003.74 697.525C1002.48 696.835 1001.12 696.49 999.646 696.49C998.146 696.49 996.766 696.835 995.506 697.525C994.276 698.185 993.286 699.205 992.536 700.585C991.786 701.965 991.411 703.645 991.411 705.625C991.411 707.635 991.771 709.33 992.491 710.71C993.241 712.09 994.231 713.125 995.461 713.815C996.691 714.475 998.041 714.805 999.511 714.805ZM1027.57 696.715H1022.4V718H1018.3V696.715H1015.11V693.34H1018.3V691.585C1018.3 688.825 1019.01 686.815 1020.42 685.555C1021.86 684.265 1024.15 683.62 1027.3 683.62V687.04C1025.5 687.04 1024.23 687.4 1023.48 688.12C1022.76 688.81 1022.4 689.965 1022.4 691.585V693.34H1027.57V696.715ZM1042.38 696.715H1037.21V718H1033.11V696.715H1029.92V693.34H1033.11V691.585C1033.11 688.825 1033.82 686.815 1035.23 685.555C1036.67 684.265 1038.96 683.62 1042.11 683.62V687.04C1040.31 687.04 1039.04 687.4 1038.29 688.12C1037.57 688.81 1037.21 689.965 1037.21 691.585V693.34H1042.38V696.715ZM1049.27 689.335C1048.49 689.335 1047.83 689.065 1047.29 688.525C1046.75 687.985 1046.48 687.325 1046.48 686.545C1046.48 685.765 1046.75 685.105 1047.29 684.565C1047.83 684.025 1048.49 683.755 1049.27 683.755C1050.02 683.755 1050.65 684.025 1051.16 684.565C1051.7 685.105 1051.97 685.765 1051.97 686.545C1051.97 687.325 1051.7 687.985 1051.16 688.525C1050.65 689.065 1050.02 689.335 1049.27 689.335ZM1051.25 693.34V718H1047.16V693.34H1051.25ZM1056.7 705.625C1056.7 703.075 1057.21 700.855 1058.23 698.965C1059.25 697.045 1060.66 695.56 1062.46 694.51C1064.29 693.46 1066.38 692.935 1068.72 692.935C1071.75 692.935 1074.24 693.67 1076.19 695.14C1078.17 696.61 1079.47 698.65 1080.1 701.26H1075.69C1075.27 699.76 1074.45 698.575 1073.22 697.705C1072.02 696.835 1070.52 696.4 1068.72 696.4C1066.38 696.4 1064.49 697.21 1063.05 698.83C1061.61 700.42 1060.89 702.685 1060.89 705.625C1060.89 708.595 1061.61 710.89 1063.05 712.51C1064.49 714.13 1066.38 714.94 1068.72 714.94C1070.52 714.94 1072.02 714.52 1073.22 713.68C1074.42 712.84 1075.24 711.64 1075.69 710.08H1080.1C1079.44 712.6 1078.12 714.625 1076.14 716.155C1074.16 717.655 1071.69 718.405 1068.72 718.405C1066.38 718.405 1064.29 717.88 1062.46 716.83C1060.66 715.78 1059.25 714.295 1058.23 712.375C1057.21 710.455 1056.7 708.205 1056.7 705.625ZM1087.68 689.335C1086.9 689.335 1086.24 689.065 1085.7 688.525C1085.16 687.985 1084.89 687.325 1084.89 686.545C1084.89 685.765 1085.16 685.105 1085.7 684.565C1086.24 684.025 1086.9 683.755 1087.68 683.755C1088.43 683.755 1089.06 684.025 1089.57 684.565C1090.11 685.105 1090.38 685.765 1090.38 686.545C1090.38 687.325 1090.11 687.985 1089.57 688.525C1089.06 689.065 1088.43 689.335 1087.68 689.335ZM1089.66 693.34V718H1085.57V693.34H1089.66ZM1095.11 705.58C1095.11 703.06 1095.62 700.855 1096.64 698.965C1097.66 697.045 1099.06 695.56 1100.83 694.51C1102.63 693.46 1104.62 692.935 1106.81 692.935C1108.97 692.935 1110.85 693.4 1112.44 694.33C1114.03 695.26 1115.21 696.43 1115.99 697.84V693.34H1120.13V718H1115.99V713.41C1115.18 714.85 1113.97 716.05 1112.35 717.01C1110.76 717.94 1108.9 718.405 1106.77 718.405C1104.58 718.405 1102.6 717.865 1100.83 716.785C1099.06 715.705 1097.66 714.19 1096.64 712.24C1095.62 710.29 1095.11 708.07 1095.11 705.58ZM1115.99 705.625C1115.99 703.765 1115.62 702.145 1114.87 700.765C1114.12 699.385 1113.1 698.335 1111.81 697.615C1110.55 696.865 1109.15 696.49 1107.62 696.49C1106.09 696.49 1104.7 696.85 1103.44 697.57C1102.18 698.29 1101.17 699.34 1100.42 700.72C1099.67 702.1 1099.3 703.72 1099.3 705.58C1099.3 707.47 1099.67 709.12 1100.42 710.53C1101.17 711.91 1102.18 712.975 1103.44 713.725C1104.7 714.445 1106.09 714.805 1107.62 714.805C1109.15 714.805 1110.55 714.445 1111.81 713.725C1113.1 712.975 1114.12 711.91 1114.87 710.53C1115.62 709.12 1115.99 707.485 1115.99 705.625ZM1131.15 684.7V718H1127.05V684.7H1131.15ZM1163.33 719.71V723.49H1139.39V719.71H1163.33Z" fill="#74A0FF"/>
<path fill-rule="evenodd" clip-rule="evenodd" d="M944.369 462.731C964.68 467.883 982.363 480.089 994.325 497.04C996.555 500.198 1000.83 501.319 1004.15 499.35L1067.46 461.895C1070.78 459.926 1075.1 461.017 1076.8 464.492C1085.9 483.136 1088.09 504.512 1082.82 524.794C1076.97 547.35 1062.39 566.707 1042.28 578.605C1022.17 590.504 998.181 593.97 975.593 588.241C955.283 583.089 937.599 570.883 925.637 553.933C923.408 550.774 919.137 549.653 915.81 551.622L852.507 589.077C849.18 591.046 844.858 589.955 843.163 586.48C834.064 567.836 831.877 546.46 837.139 526.178C842.991 503.622 857.576 484.266 877.685 472.367C897.795 460.468 921.782 457.002 944.369 462.731Z" fill="#6093FF"/>
</svg>
