<svg width="16" height="15" viewBox="0 0 16 15" fill="none" xmlns="http://www.w3.org/2000/svg">
<path d="M11.5508 10.6907C11.5508 11.3075 12.0129 11.7407 12.6658 11.7407C13.3237 11.7407 13.7807 11.3075 13.7807 10.6907V3.09133C13.7807 2.47453 13.3237 2.04135 12.6658 2.04135C12.0129 2.04135 11.5508 2.47453 11.5508 3.09133V10.6907ZM6.28744 9.28762C7.80418 9.45712 9.37115 9.8903 10.8226 10.5966C10.8176 10.5542 10.8176 10.5118 10.8176 10.4694V3.30792C10.8176 3.27967 10.8176 3.25142 10.8176 3.22317C9.39124 3.92472 7.67862 4.39086 6.28744 4.53211V9.28762ZM4.45429 4.53211C3.00284 4.53211 2.21936 5.24779 2.21936 6.56144V7.25829C2.21936 8.56723 3.00284 9.28291 4.45429 9.28291H5.54916V4.53211H4.45429ZM6.5938 12.673C7.26679 12.673 7.764 12.2068 7.57818 11.4441L7.24168 10.0363C6.93532 9.92326 6.14179 9.86205 5.62449 9.85734H4.36891L5.35831 11.8019C5.64458 12.3575 5.96099 12.673 6.5938 12.673Z" fill="#379DFF"/>
</svg>
