<svg width="25" height="25" viewBox="0 0 25 25" fill="none" xmlns="http://www.w3.org/2000/svg">
<path d="M12.4921 19.5597C16.9416 19.5597 20.6142 16.022 20.6142 11.7436C20.6142 7.46508 16.9337 3.9274 12.4843 3.9274C8.04265 3.9274 4.37793 7.46508 4.37793 11.7436C4.37793 16.022 8.0505 19.5597 12.4921 19.5597ZM10.6401 15.6214C10.3498 15.3417 10.3655 14.9184 10.6401 14.6614L13.8576 11.7511L10.6401 8.84084C10.3576 8.59139 10.3655 8.15296 10.6558 7.88839C10.9148 7.6465 11.3386 7.66162 11.6211 7.91107L14.9405 10.912C15.4427 11.3656 15.4427 12.1517 14.9405 12.5977L11.6211 15.5987C11.3699 15.8331 10.8834 15.8406 10.6401 15.6214Z" fill="#DCE3EF"/>
</svg>
