<svg width="21" height="21" viewBox="0 0 21 21" fill="none" xmlns="http://www.w3.org/2000/svg">
<path d="M1.75001 12.25C2.71652 12.25 3.50003 11.4665 3.50003 10.5C3.50003 9.53351 2.71652 8.75 1.75001 8.75C0.783508 8.75 0 9.53351 0 10.5C0 11.4665 0.783508 12.25 1.75001 12.25Z" fill="#828282"/>
<path d="M10.5 12.25C11.4665 12.25 12.25 11.4665 12.25 10.5C12.25 9.53351 11.4665 8.75 10.5 8.75C9.53348 8.75 8.74997 9.53351 8.74997 10.5C8.74997 11.4665 9.53348 12.25 10.5 12.25Z" fill="#828282"/>
<path d="M19.25 12.25C20.2165 12.25 21 11.4665 21 10.5C21 9.53351 20.2165 8.75 19.25 8.75C18.2835 8.75 17.4999 9.53351 17.4999 10.5C17.4999 11.4665 18.2835 12.25 19.25 12.25Z" fill="#828282"/>
</svg>
