<svg xmlns="http://www.w3.org/2000/svg" width="17" height="17" viewBox="0 0 17 17" fill="none">
  <g clip-path="url(#clip0_273_1197)">
    <path d="M5.66658 12.75H12.9178L14.1666 13.731V6.375H14.8749C15.0628 6.375 15.2429 6.44963 15.3758 6.58247C15.5086 6.7153 15.5833 6.89547 15.5833 7.08333V16.6458L12.4276 14.1667H6.37492C6.18706 14.1667 6.00689 14.092 5.87405 13.9592C5.74121 13.8264 5.66658 13.6462 5.66658 13.4583V12.75ZM3.86388 11.3333L0.708252 13.8125V2.83333C0.708252 2.64547 0.78288 2.4653 0.915718 2.33247C1.04856 2.19963 1.22872 2.125 1.41659 2.125H12.0416C12.2294 2.125 12.4096 2.19963 12.5425 2.33247C12.6753 2.4653 12.7499 2.64547 12.7499 2.83333V11.3333H3.86388Z" fill="#BDBDBD"/>
  </g>
  <defs>
    <clipPath id="clip0_273_1197">
      <rect width="17" height="17" fill="white"/>
    </clipPath>
  </defs>
</svg>