<svg width="15" height="13" viewBox="0 0 15 13" fill="none" xmlns="http://www.w3.org/2000/svg">
<path d="M8.57143 0C5.02143 0 2.14286 2.91056 2.14286 6.5H0L2.77857 9.30944L2.82857 9.41056L5.71429 6.5H3.57143C3.57143 3.705 5.80714 1.44444 8.57143 1.44444C11.3357 1.44444 13.5714 3.705 13.5714 6.5C13.5714 9.295 11.3357 11.5556 8.57143 11.5556C7.19286 11.5556 5.94286 10.985 5.04286 10.0678L4.02857 11.0933C5.19286 12.2706 6.79286 13 8.57143 13C12.1214 13 15 10.0894 15 6.5C15 2.91056 12.1214 0 8.57143 0ZM7.85714 3.61111V7.22222L10.9143 9.05667L11.4286 8.18278L8.92857 6.68056V3.61111H7.85714Z" fill="#379DFF"/>
</svg>
