<svg width="9" height="15" viewBox="0 0 9 15" fill="none" xmlns="http://www.w3.org/2000/svg">
<path d="M3.00506 10.152V9.9858C3.00932 9.21449 3.08177 8.60085 3.22239 8.14489C3.36728 7.68892 3.57182 7.32244 3.83603 7.04545C4.10023 6.7642 4.42196 6.50639 4.80123 6.27202C5.06117 6.11008 5.29341 5.93324 5.49796 5.74148C5.70676 5.54545 5.87083 5.32812 5.99015 5.08949C6.10946 4.84659 6.16912 4.57599 6.16912 4.2777C6.16912 3.94105 6.09029 3.64915 5.93262 3.40199C5.77495 3.15483 5.56188 2.96307 5.29341 2.8267C5.02921 2.69034 4.73304 2.62216 4.40492 2.62216C4.10236 2.62216 3.81472 2.68821 3.54199 2.82031C3.27353 2.94815 3.0498 3.14418 2.87083 3.40838C2.69611 3.66832 2.5981 3.99858 2.57679 4.39915H0.301225C0.322532 3.58949 0.518555 2.91193 0.889293 2.36648C1.26429 1.82102 1.75861 1.41193 2.37225 1.1392C2.99015 0.866477 3.67196 0.730113 4.4177 0.730113C5.23162 0.730113 5.94753 0.872869 6.56543 1.15838C7.18759 1.44389 7.67125 1.85085 8.01642 2.37926C8.36586 2.90341 8.54057 3.52557 8.54057 4.24574C8.54057 4.73153 8.46174 5.16619 8.30407 5.54972C8.15066 5.93324 7.9312 6.27415 7.64569 6.57244C7.36017 6.87074 7.0214 7.13707 6.62935 7.37145C6.28418 7.58452 6.0008 7.80611 5.77921 8.03622C5.56188 8.26633 5.39995 8.53693 5.29341 8.84801C5.19114 9.15483 5.13787 9.53409 5.13361 9.9858V10.152H3.00506ZM4.11728 14.1406C3.73375 14.1406 3.4035 14.0043 3.12651 13.7315C2.84952 13.4588 2.71103 13.1264 2.71103 12.7344C2.71103 12.3509 2.84952 12.0227 3.12651 11.75C3.4035 11.4773 3.73375 11.3409 4.11728 11.3409C4.49654 11.3409 4.82466 11.4773 5.10165 11.75C5.3829 12.0227 5.52353 12.3509 5.52353 12.7344C5.52353 12.9943 5.45748 13.2308 5.32537 13.4439C5.19753 13.657 5.02708 13.8274 4.81401 13.9553C4.6052 14.0788 4.37296 14.1406 4.11728 14.1406Z" fill="#379DFF"/>
</svg>
