<svg width="1920" height="1080" viewBox="0 0 1920 1080" fill="none" xmlns="http://www.w3.org/2000/svg">
<rect width="1920" height="1080" fill="white"/>
<path d="M557.859 517.38H562.899V571.68H557.859V517.38ZM561.519 539.4H571.539V543.54H561.519V539.4ZM543.999 523.26H548.859C548.859 538.68 541.779 552.6 524.259 561.42L521.499 557.58C536.499 549.96 543.999 538.38 543.999 524.04V523.26ZM524.019 523.26H546.579V527.34H524.019V523.26ZM589.895 527.64H593.975V530.34C593.975 540.12 588.035 548.16 578.975 551.34L576.515 547.44C584.555 544.68 589.895 537.96 589.895 530.34V527.64ZM590.735 527.64H594.875V530.34C594.875 537.54 600.395 543.9 608.435 546.42L605.975 550.38C596.915 547.38 590.735 539.7 590.735 530.34V527.64ZM577.895 524.7H606.815V528.72H577.895V524.7ZM589.895 517.8H594.875V526.2H589.895V517.8ZM605.015 534.12H618.695V538.26H605.015V534.12ZM615.995 517.5H620.975V557.94H615.995V517.5ZM586.355 566.4H622.475V570.48H586.355V566.4ZM586.355 554.34H591.335V568.62H586.355V554.34ZM653.55 538.5H663.81V542.64H653.55V538.5ZM672.87 517.44H677.67V571.68H672.87V517.44ZM662.13 518.58H666.87V568.98H662.13V518.58ZM643.77 521.94C650.79 521.94 655.35 529.2 655.35 540.84C655.35 552.48 650.79 559.74 643.77 559.74C636.75 559.74 632.25 552.48 632.25 540.84C632.25 529.2 636.75 521.94 643.77 521.94ZM643.77 526.56C639.51 526.56 636.81 532.08 636.81 540.84C636.81 549.6 639.51 555.12 643.77 555.12C648.09 555.12 650.79 549.6 650.79 540.84C650.79 532.08 648.09 526.56 643.77 526.56ZM713.845 535.8H728.965V539.88H713.845V535.8ZM700.765 522.12H704.845V531.78C704.845 543.96 698.425 555.6 689.845 560.22L686.665 556.26C694.645 552.3 700.765 541.86 700.765 531.78V522.12ZM701.725 522.12H705.745V531.78C705.745 541.68 711.865 551.52 719.725 555.24L716.785 559.26C708.025 554.82 701.725 543.66 701.725 531.78V522.12ZM726.505 517.38H731.425V571.74H726.505V517.38ZM794.878 517.44H799.918V545.52H794.878V517.44ZM764.518 548.16H799.918V561.24H769.558V569.4H764.698V557.52H794.938V552.12H764.518V548.16ZM764.698 567.12H801.898V571.08H764.698V567.12ZM757.798 521.1H786.898V525.06H757.798V521.1ZM756.838 543.72L756.298 539.58C765.958 539.58 778.918 539.34 789.478 538.02L789.778 541.68C778.978 543.3 766.378 543.66 756.838 543.72ZM763.138 522.9H767.938V541.38H763.138V522.9ZM776.698 522.9H781.558V541.38H776.698V522.9ZM822.594 545.34H827.514V561.6H822.594V545.34ZM842.634 545.34H847.614V561.6H842.634V545.34ZM810.594 560.64H859.734V564.78H810.594V560.64ZM835.074 520.86C846.534 520.86 854.754 526.32 854.754 534.84C854.754 543.3 846.534 548.76 835.074 548.76C823.554 548.76 815.334 543.3 815.334 534.84C815.334 526.32 823.554 520.86 835.074 520.86ZM835.074 524.82C826.374 524.82 820.134 528.78 820.134 534.84C820.134 540.84 826.374 544.8 835.074 544.8C843.774 544.8 849.954 540.84 849.954 534.84C849.954 528.78 843.774 524.82 835.074 524.82ZM902.869 517.5H907.849V558.18H902.869V517.5ZM906.289 535.26H915.889V539.46H906.289V535.26ZM865.909 524.04H897.949V528.06H865.909V524.04ZM881.929 531.06C889.609 531.06 894.889 535.08 894.889 541.2C894.889 547.26 889.609 551.28 881.929 551.28C874.189 551.28 868.909 547.26 868.909 541.2C868.909 535.08 874.189 531.06 881.929 531.06ZM881.929 534.96C877.009 534.96 873.649 537.42 873.649 541.2C873.649 544.92 877.009 547.38 881.929 547.38C886.789 547.38 890.149 544.92 890.149 541.2C890.149 537.42 886.789 534.96 881.929 534.96ZM879.409 517.44H884.389V526.14H879.409V517.44ZM874.069 566.4H910.309V570.48H874.069V566.4ZM874.069 554.94H879.049V568.14H874.069V554.94ZM974.002 517.44H978.982V554.16H974.002V517.44ZM962.362 532.74H975.022V536.82H962.362V532.74ZM956.962 521.7H962.182C962.182 535.74 952.942 545.7 937.402 550.74L935.302 546.78C949.042 542.46 956.962 534.3 956.962 523.68V521.7ZM937.882 521.7H960.502V525.78H937.882V521.7ZM959.002 549.48H963.262V551.94C963.262 562.32 953.782 569.34 942.922 571.56L940.942 567.6C950.542 565.86 959.002 559.86 959.002 551.94V549.48ZM959.722 549.48H963.982V551.94C963.982 559.74 972.322 565.74 981.982 567.48L979.882 571.44C969.082 569.28 959.722 562.26 959.722 551.94V549.48ZM1039.68 517.38H1044.72V571.68H1039.68V517.38ZM1043.34 539.4H1053.36V543.54H1043.34V539.4ZM1025.82 523.26H1030.68C1030.68 538.68 1023.6 552.6 1006.08 561.42L1003.32 557.58C1018.32 549.96 1025.82 538.38 1025.82 524.04V523.26ZM1005.84 523.26H1028.4V527.34H1005.84V523.26ZM1071.71 527.64H1075.79V530.34C1075.79 540.12 1069.85 548.16 1060.79 551.34L1058.33 547.44C1066.37 544.68 1071.71 537.96 1071.71 530.34V527.64ZM1072.55 527.64H1076.69V530.34C1076.69 537.54 1082.21 543.9 1090.25 546.42L1087.79 550.38C1078.73 547.38 1072.55 539.7 1072.55 530.34V527.64ZM1059.71 524.7H1088.63V528.72H1059.71V524.7ZM1071.71 517.8H1076.69V526.2H1071.71V517.8ZM1086.83 534.12H1100.51V538.26H1086.83V534.12ZM1097.81 517.5H1102.79V557.94H1097.81V517.5ZM1068.17 566.4H1104.29V570.48H1068.17V566.4ZM1068.17 554.34H1073.15V568.62H1068.17V554.34ZM1135.37 538.5H1145.63V542.64H1135.37V538.5ZM1154.69 517.44H1159.49V571.68H1154.69V517.44ZM1143.95 518.58H1148.69V568.98H1143.95V518.58ZM1125.59 521.94C1132.61 521.94 1137.17 529.2 1137.17 540.84C1137.17 552.48 1132.61 559.74 1125.59 559.74C1118.57 559.74 1114.07 552.48 1114.07 540.84C1114.07 529.2 1118.57 521.94 1125.59 521.94ZM1125.59 526.56C1121.33 526.56 1118.63 532.08 1118.63 540.84C1118.63 549.6 1121.33 555.12 1125.59 555.12C1129.91 555.12 1132.61 549.6 1132.61 540.84C1132.61 532.08 1129.91 526.56 1125.59 526.56ZM1195.66 535.8H1210.78V539.88H1195.66V535.8ZM1182.58 522.12H1186.66V531.78C1186.66 543.96 1180.24 555.6 1171.66 560.22L1168.48 556.26C1176.46 552.3 1182.58 541.86 1182.58 531.78V522.12ZM1183.54 522.12H1187.56V531.78C1187.56 541.68 1193.68 551.52 1201.54 555.24L1198.6 559.26C1189.84 554.82 1183.54 543.66 1183.54 531.78V522.12ZM1208.32 517.38H1213.24V571.74H1208.32V517.38ZM1276.63 517.44H1281.61V545.7H1276.63V517.44ZM1246.57 548.52H1281.67V561.42H1251.55V569.04H1246.69V557.7H1276.75V552.48H1246.57V548.52ZM1246.69 567.18H1283.47V571.08H1246.69V567.18ZM1240.03 519.6H1244.89V527.46H1260.49V519.6H1265.41V543.36H1240.03V519.6ZM1244.89 531.3V539.34H1260.49V531.3H1244.89ZM1331.89 517.38H1336.87V571.74H1331.89V517.38ZM1295.53 554.52H1300.03C1309.09 554.52 1317.19 554.16 1326.79 552.6L1327.33 556.68C1317.49 558.3 1309.33 558.66 1300.03 558.66H1295.53V554.52ZM1295.41 522.48H1320.49V541.86H1300.51V556.08H1295.53V537.78H1315.45V526.56H1295.41V522.48ZM1360.99 525.18H1364.95V534C1364.95 545.28 1358.05 556.92 1349.59 561.24L1346.71 557.28C1354.45 553.5 1360.99 543.18 1360.99 534V525.18ZM1361.89 525.18H1365.85V534C1365.85 542.58 1371.97 552.24 1379.83 555.96L1377.01 559.92C1368.43 555.66 1361.89 544.74 1361.89 534V525.18ZM1348.63 522.96H1377.85V527.16H1348.63V522.96ZM1384.27 517.44H1389.31V571.68H1384.27V517.44ZM1388.11 539.34H1398.19V543.54H1388.11V539.34Z" fill="#6093FF"/>
</svg>
